<?xml version="1.0" encoding="UTF-8"?>
<svg width="16px" height="16px" viewBox="0 0 16 16" version="1.1" xmlns="http://www.w3.org/2000/svg" xmlns:xlink="http://www.w3.org/1999/xlink">
    <!-- Generator: Sketch 49.3 (51167) - http://www.bohemiancoding.com/sketch -->
    <title>16 / browser</title>
    <desc>Created with Sketch.</desc>
    <defs>
        <path d="M2,6 L2,13 L14,13 L14,6 L2,6 Z M2,4 L14,4 L14,3 L2,3 L2,4 Z M2,15 C0.8954305,15 0,14.1045695 0,13 L0,3 C0,1.8954305 0.8954305,1 2,1 L14,1 C15.1045695,1 16,1.8954305 16,3 L16,13 C16,14.1045695 15.1045695,15 14,15 L2,15 Z" id="path-1"></path>
    </defs>
    <g id="16-/-browser" stroke="none" stroke-width="1" fill="none" fill-rule="evenodd">
        <g id="browser">
            <rect id="placeholder" fill-opacity="0" fill="#FFFFFF" x="0" y="0" width="16" height="16"></rect>
            <mask id="mask-2" fill="white">
                <use xlink:href="#path-1"></use>
            </mask>
            <g id="Shape" fill-rule="nonzero"></g>
            <g id="color-/-1---primary" mask="url(#mask-2)" fill="#000000">
                <rect id="color" x="0" y="0" width="16" height="16"></rect>
            </g>
        </g>
    </g>
</svg>