<?xml version="1.0" encoding="UTF-8"?>
<svg width="16px" height="16px" viewBox="0 0 16 16" version="1.1" xmlns="http://www.w3.org/2000/svg" xmlns:xlink="http://www.w3.org/1999/xlink">
    <!-- Generator: Sketch 49.3 (51167) - http://www.bohemiancoding.com/sketch -->
    <title>16 / calendar</title>
    <desc>Created with Sketch.</desc>
    <defs>
        <path d="M14,5 L14,3 L12,3 L4,3 L2,3 L2,5 L14,5 Z M14,7 L2,7 L2,14 L14,14 L14,7 Z M12,1 L12,0 L14,0 L14,1 C15.1045695,1 16,1.8954305 16,3 L16,14 C16,15.1045695 15.1045695,16 14,16 L2,16 C0.8954305,16 0,15.1045695 0,14 L0,3 C0,1.8954305 0.8954305,1 2,1 L2,0 L4,0 L4,1 L12,1 Z" id="path-1"></path>
    </defs>
    <g id="16-/-calendar" stroke="none" stroke-width="1" fill="none" fill-rule="evenodd">
        <g id="calendar">
            <rect id="placeholder" fill-opacity="0" fill="#FFFFFF" x="0" y="0" width="16" height="16"></rect>
            <mask id="mask-2" fill="white">
                <use xlink:href="#path-1"></use>
            </mask>
            <g id="Shape" fill-rule="nonzero"></g>
            <g id="color-/-1---primary" mask="url(#mask-2)" fill="#000000">
                <rect id="color" x="0" y="0" width="16" height="16"></rect>
            </g>
        </g>
    </g>
</svg>