<?xml version="1.0" encoding="UTF-8"?>
<svg width="16px" height="16px" viewBox="0 0 16 16" version="1.1" xmlns="http://www.w3.org/2000/svg" xmlns:xlink="http://www.w3.org/1999/xlink">
    <!-- Generator: Sketch 49.3 (51167) - http://www.bohemiancoding.com/sketch -->
    <title>16 / file</title>
    <desc>Created with Sketch.</desc>
    <defs>
        <path d="M11,2.41421356 L11,4 L12.5857864,4 L11,2.41421356 Z M13,6 L11,6 C9.8954305,6 9,5.1045695 9,4 L9,2 L3,2 L3,14 L13,14 L13,6 Z M3,0 L11.4142136,0 L15,3.58578644 L15,14 C15,15.1045695 14.1045695,16 13,16 L3,16 C1.8954305,16 1,15.1045695 1,14 L1,2 C1,0.8954305 1.8954305,0 3,0 Z" id="path-1"></path>
    </defs>
    <g id="16-/-file" stroke="none" stroke-width="1" fill="none" fill-rule="evenodd">
        <g id="file">
            <rect id="placeholder" fill-opacity="0" fill="#FFFFFF" x="0" y="0" width="16" height="16"></rect>
            <mask id="mask-2" fill="white">
                <use xlink:href="#path-1"></use>
            </mask>
            <g id="Shape" fill-rule="nonzero"></g>
            <g id="color-/-1---primary" mask="url(#mask-2)" fill="#000000">
                <rect id="color" x="0" y="0" width="16" height="16"></rect>
            </g>
        </g>
    </g>
</svg>