<?xml version="1.0" encoding="UTF-8"?>
<svg width="16px" height="16px" viewBox="0 0 16 16" version="1.1" xmlns="http://www.w3.org/2000/svg" xmlns:xlink="http://www.w3.org/1999/xlink">
    <!-- Generator: Sketch 49.3 (51167) - http://www.bohemiancoding.com/sketch -->
    <title>16 / globe</title>
    <desc>Created with Sketch.</desc>
    <defs>
        <path d="M8,16 C3.581722,16 0,12.418278 0,8 C0,3.581722 3.581722,0 8,0 C12.418278,0 16,3.581722 16,8 C16,12.418278 12.418278,16 8,16 Z M8,14 C11.3137085,14 14,11.3137085 14,8 C14,4.6862915 11.3137085,2 8,2 C4.6862915,2 2,4.6862915 2,8 C2,11.3137085 4.6862915,14 8,14 Z M4.08108046,9.69444494 C3.67050617,9.63167269 3.26447616,9.56021408 2.86391726,9.48100224 C2.29087309,9.36768086 1.77025435,9.24633695 1.30349225,9.1231365 C1.14246948,9.08063502 1.00112945,9.041418 0.870504686,9.00368095 C0.800925813,8.9834567 0.800925813,8.9834567 0.757007691,8.97050962 C0.688076478,8.95726214 0.688076478,8.95726214 0.999948672,9 L0.999948672,7 C1.08104049,7 2.43617151,7.35768277 3.25191011,7.51899776 C3.50019448,7.56809682 3.7507409,7.61398121 4.00324217,7.65639248 C4.08286948,3.44870816 5.62357227,0 8,0 C10.3766242,0 11.9173853,3.44927849 11.9967776,7.65743622 C12.2521715,7.61470598 12.5055255,7.56844436 12.7564873,7.5189202 C13.2891989,7.41379624 13.7718233,7.30140008 14.1944061,7.18954302 C14.3407371,7.15080944 14.4686069,7.11508179 14.5764815,7.08342716 C14.6348125,7.06616426 14.6348125,7.06616426 14.6704973,7.05527576 C14.6794629,7.05251158 14.7892975,7.70075299 15.000001,9 L15.3253795,8.94558385 L15.3014923,8.95348104 C15.2769434,8.96119961 15.2769434,8.96119961 15.2575257,8.96718518 C15.2099849,8.98168731 15.2099849,8.98168731 15.1396154,9.00251034 C15.0149101,9.03910374 14.8699325,9.0796114 14.706178,9.12295698 C14.2435986,9.24540107 13.7196153,9.36742913 13.1436949,9.4810798 C12.7407721,9.56059155 12.3321333,9.63230675 11.9188389,9.69526908 C11.5696229,13.2653457 10.1161556,16 8,16 C5.88368155,16 4.43015345,13.2649249 4.08108046,9.69444494 Z M6.12332229,9.92829941 C6.25467101,10.9270216 6.48656724,11.8295608 6.79782469,12.5558282 C7.21659494,13.5329588 7.68982759,14 8,14 C8.31017241,14 8.78340506,13.5329588 9.20217531,12.5558282 C9.51342293,11.8295837 9.74531434,10.9270786 9.87666526,9.92839405 C9.25625493,9.97514393 8.62960489,10 8.0000001,10 C7.36987181,10 6.7433392,9.97511985 6.12332229,9.92829941 Z M6.00025048,7.91163617 C6.6610517,7.96914018 7.32930506,8 8.0000001,8 C8.67003057,8 9.33847012,7.96917919 9.99975037,7.91178573 C9.99001425,6.1921276 9.69595993,4.59633593 9.20217531,3.44417183 C8.78340506,2.46704125 8.31017241,2 8,2 C7.68982759,2 7.21659494,2.46704125 6.79782469,3.44417183 C6.30405439,4.59630252 6.0100028,6.19203507 6.00025048,7.91163617 Z" id="path-1"></path>
    </defs>
    <g id="16-/-globe" stroke="none" stroke-width="1" fill="none" fill-rule="evenodd">
        <g id="globe">
            <rect id="placeholder" fill-opacity="0" fill="#FFFFFF" x="0" y="0" width="16" height="16"></rect>
            <mask id="mask-2" fill="white">
                <use xlink:href="#path-1"></use>
            </mask>
            <g id="Oval" fill-rule="nonzero"></g>
            <g id="color-/-1---primary" mask="url(#mask-2)" fill="#000000">
                <rect id="color" x="0" y="0" width="16" height="16"></rect>
            </g>
        </g>
    </g>
</svg>