<?xml version="1.0" encoding="UTF-8"?>
<svg width="16px" height="16px" viewBox="0 0 16 16" version="1.1" xmlns="http://www.w3.org/2000/svg" xmlns:xlink="http://www.w3.org/1999/xlink">
    <!-- Generator: Sketch 49.3 (51167) - http://www.bohemiancoding.com/sketch -->
    <title>16 / mail</title>
    <desc>Created with Sketch.</desc>
    <defs>
        <path d="M2,2 L14,2 C15.1045695,2 16,2.8954305 16,4 L16,12 C16,13.1045695 15.1045695,14 14,14 L2,14 C0.8954305,14 0,13.1045695 0,12 L0,4 C0,2.8954305 0.8954305,2 2,2 Z M2,4 L2,12 L14,12 L14,4 L2,4 Z M8.00002236,7.98802764 L14,5 L14,6.89442719 L8,10 L2,7 L2,5 L8.00002236,7.98802764 Z" id="path-1"></path>
    </defs>
    <g id="16-/-mail" stroke="none" stroke-width="1" fill="none" fill-rule="evenodd">
        <g id="mail">
            <rect id="placeholder" fill-opacity="0" fill="#FFFFFF" x="0" y="0" width="16" height="16"></rect>
            <mask id="mask-2" fill="white">
                <use xlink:href="#path-1"></use>
            </mask>
            <g id="Shape" fill-rule="nonzero"></g>
            <g id="color-/-1---primary" mask="url(#mask-2)" fill="#000000">
                <rect id="color" x="0" y="0" width="16" height="16"></rect>
            </g>
        </g>
    </g>
</svg>