<?xml version="1.0" encoding="UTF-8"?>
<svg width="16px" height="16px" viewBox="0 0 16 16" version="1.1" xmlns="http://www.w3.org/2000/svg" xmlns:xlink="http://www.w3.org/1999/xlink">
    <!-- Generator: Sketch 49.3 (51167) - http://www.bohemiancoding.com/sketch -->
    <title>16 / printer</title>
    <desc>Created with Sketch.</desc>
    <defs>
        <path d="M3,13 L2,13 C0.8954305,13 0,12.1045695 0,11 L0,6 C0,4.8954305 0.8954305,4 2,4 L3,4 L3,1 L13,1 L13,4 L14,4 C15.1045695,4 16,4.8954305 16,6 L16,11 C16,12.1045695 15.1045695,13 14,13 L13,13 L13,15 L3,15 L3,13 Z M3,11 L3,9 L13,9 L13,11 L14,11 L14,6 L2,6 L2,11 L3,11 Z M5,4 L11,4 L11,3 L5,3 L5,4 Z M11,11 L5,11 L5,13 L11,13 L11,11 Z M13,7 L12,7 L12,8 L13,8 L13,7 Z" id="path-1"></path>
    </defs>
    <g id="16-/-printer" stroke="none" stroke-width="1" fill="none" fill-rule="evenodd">
        <g id="printer">
            <rect id="placeholder" fill-opacity="0" fill="#FFFFFF" x="0" y="0" width="16" height="16"></rect>
            <mask id="mask-2" fill="white">
                <use xlink:href="#path-1"></use>
            </mask>
            <g id="Shape" fill-rule="nonzero"></g>
            <g id="color-/-1---primary" mask="url(#mask-2)" fill="#000000">
                <rect id="color" x="0" y="0" width="16" height="16"></rect>
            </g>
        </g>
    </g>
</svg>