<?xml version="1.0" encoding="UTF-8"?>
<svg width="24px" height="24px" viewBox="0 0 24 24" version="1.1" xmlns="http://www.w3.org/2000/svg" xmlns:xlink="http://www.w3.org/1999/xlink">
    <!-- Generator: Sketch 49.3 (51167) - http://www.bohemiancoding.com/sketch -->
    <title>24 / add to library</title>
    <desc>Created with Sketch.</desc>
    <defs>
        <path d="M12,12.1404647 L12,7.13148291 L16.5547002,10.1679497 L15.4452998,11.8320503 L14,10.8685171 L14,14.5 C14,15.9534271 12.6045695,17 11,17 C9.3954305,17 8,15.9534271 8,14.5 C8,13.0465729 9.3954305,12 11,12 C11.3471248,12 11.6844618,12.0489806 12,12.1404647 Z M19,21 L17,21 L17,19 L19,19 L19,17 L21,17 L21,19 L23,19 L23,21 L21,21 L21,23 L19,23 L19,21 Z M15,20 L15,22 L4,22 C2.8954305,22 2,21.1045695 2,20 L2,4 C2,2.8954305 2.8954305,2 4,2 L20,2 C21.1045695,2 22,2.8954305 22,4 L22,15 L20,15 L20,4 L4,4 L4,20 L15,20 Z M11,15 C11.6045695,15 12,14.7034271 12,14.5 C12,14.2965729 11.6045695,14 11,14 C10.3954305,14 10,14.2965729 10,14.5 C10,14.7034271 10.3954305,15 11,15 Z" id="path-1"></path>
    </defs>
    <g id="24-/-add-to-library" stroke="none" stroke-width="1" fill="none" fill-rule="evenodd">
        <g id="add-to-library">
            <rect id="placeholder" fill-opacity="0" fill="#FFFFFF" x="0" y="0" width="24" height="24"></rect>
            <mask id="mask-2" fill="white">
                <use xlink:href="#path-1"></use>
            </mask>
            <g id="Combined-Shape" fill-rule="nonzero"></g>
            <g id="color-/-1---primary" mask="url(#mask-2)" fill="#000000">
                <rect id="color" x="0" y="0" width="24" height="24"></rect>
            </g>
        </g>
    </g>
</svg>