<?xml version="1.0" encoding="UTF-8"?>
<svg width="24px" height="24px" viewBox="0 0 24 24" version="1.1" xmlns="http://www.w3.org/2000/svg" xmlns:xlink="http://www.w3.org/1999/xlink">
    <!-- Generator: Sketch 49.3 (51167) - http://www.bohemiancoding.com/sketch -->
    <title>24 / airplay</title>
    <desc>Created with Sketch.</desc>
    <defs>
        <path d="M19.2857143,19 L17.8571429,17 L21,17 L21,5 L3,5 L3,17 L6.14285714,17 L4.71428571,19 L3,19 C1.8954305,19 1,18.1045695 1,17 L1,5 C1,3.8954305 1.8954305,3 3,3 L21,3 C22.1045695,3 23,3.8954305 23,5 L23,17 C23,18.1045695 22.1045695,19 21,19 L19.2857143,19 Z M12,11.2795349 L18.9431893,21 L5.05681068,21 L12,11.2795349 Z M8.94318932,19 L15.0568107,19 L12,14.7204651 L8.94318932,19 Z" id="path-1"></path>
    </defs>
    <g id="24-/-airplay" stroke="none" stroke-width="1" fill="none" fill-rule="evenodd">
        <g id="airplay">
            <rect id="placeholder" fill-opacity="0" fill="#FFFFFF" x="0" y="0" width="24" height="24"></rect>
            <mask id="mask-2" fill="white">
                <use xlink:href="#path-1"></use>
            </mask>
            <g id="Rectangle-4" fill-rule="nonzero"></g>
            <g id="color-/-1---primary" mask="url(#mask-2)" fill="#000000">
                <rect id="color" x="0" y="0" width="24" height="24"></rect>
            </g>
        </g>
    </g>
</svg>