<?xml version="1.0" encoding="UTF-8"?>
<svg width="24px" height="24px" viewBox="0 0 24 24" version="1.1" xmlns="http://www.w3.org/2000/svg" xmlns:xlink="http://www.w3.org/1999/xlink">
    <!-- Generator: Sketch 49.3 (51167) - http://www.bohemiancoding.com/sketch -->
    <title>24 / alert-triangle</title>
    <desc>Created with Sketch.</desc>
    <defs>
        <path d="M12.0000062,3.00000204 C13.0614385,3.00124494 14.0416933,3.56828473 14.5689165,4.48254409 L21.5744355,16.4623252 C22.1212692,17.3870202 22.1330621,18.5332508 21.6053695,19.469001 C21.0776769,20.4047512 20.0907215,20.987763 19.0066815,20.9983464 L4.98154654,20.9983133 C3.90516375,20.9895567 2.91562137,20.4059225 2.38717552,19.4681477 C1.85872967,18.5303729 1.87205087,17.3816146 2.4184465,16.4625441 L9.42560578,4.47998175 C9.95825299,3.56277758 10.9392547,2.99875995 12.0000062,3.00000204 Z M11.1547821,5.48494478 L4.14126208,17.4783466 C3.95718014,17.7880006 3.95272202,18.1724486 4.12957382,18.4862881 C4.30642562,18.8001276 4.63758984,18.995449 4.98968148,18.9983464 L18.9968746,18.9983945 C19.3563818,18.9948687 19.6866803,18.7997556 19.86328,18.4865937 C20.0398797,18.1734318 20.035933,17.7898297 19.8504465,17.4761487 L12.8394085,5.48691741 C12.6658653,5.18598757 12.3450486,5.00040745 11.9976643,5.00000067 C11.65028,4.9995939 11.3290296,5.18442219 11.1547821,5.48494478 Z M11.9896815,17.9983464 C11.4373967,17.9983464 10.9896815,17.5506311 10.9896815,16.9983464 C10.9896815,16.4460616 11.4373967,15.9983464 11.9896815,15.9983464 C12.5419662,15.9983464 12.9896815,16.4460616 12.9896815,16.9983464 C12.9896815,17.5506311 12.5419662,17.9983464 11.9896815,17.9983464 Z M10.9896815,7.99834639 L12.9896815,7.99834639 L12.9896815,14.9983464 L10.9896815,14.9983464 L10.9896815,7.99834639 Z" id="path-1"></path>
    </defs>
    <g id="24-/-alert-triangle" stroke="none" stroke-width="1" fill="none" fill-rule="evenodd">
        <g id="alert-triangle">
            <rect id="placeholder" fill-opacity="0" fill="#FFFFFF" x="0" y="0" width="24" height="24"></rect>
            <mask id="mask-2" fill="white">
                <use xlink:href="#path-1"></use>
            </mask>
            <g id="Shape" fill-rule="nonzero"></g>
            <g id="color-/-1---primary" mask="url(#mask-2)" fill="#000000">
                <rect id="color" x="0" y="0" width="24" height="24"></rect>
            </g>
        </g>
    </g>
</svg>