<?xml version="1.0" encoding="UTF-8"?>
<svg width="24px" height="24px" viewBox="0 0 24 24" version="1.1" xmlns="http://www.w3.org/2000/svg" xmlns:xlink="http://www.w3.org/1999/xlink">
    <!-- Generator: Sketch 49.3 (51167) - http://www.bohemiancoding.com/sketch -->
    <title>24 / app-notification</title>
    <desc>Created with Sketch.</desc>
    <defs>
        <path d="M18,13 L20,13 L20,20 C20,21.1045695 19.1045695,22 18,22 L4,22 C2.8954305,22 2,21.1045695 2,20 L2,6 C2,4.8954305 2.8954305,4 4,4 L11,4 L11,6 L4,6 L4,20 L18,20 L18,13 Z M17,12 C14.2385763,12 12,9.76142375 12,7 C12,4.23857625 14.2385763,2 17,2 C19.7614237,2 22,4.23857625 22,7 C22,9.76142375 19.7614237,12 17,12 Z M17,10 C18.6568542,10 20,8.65685425 20,7 C20,5.34314575 18.6568542,4 17,4 C15.3431458,4 14,5.34314575 14,7 C14,8.65685425 15.3431458,10 17,10 Z" id="path-1"></path>
    </defs>
    <g id="24-/-app-notification" stroke="none" stroke-width="1" fill="none" fill-rule="evenodd">
        <g id="app-notification">
            <rect id="placeholder" fill-opacity="0" fill="#FFFFFF" x="0" y="0" width="24" height="24"></rect>
            <mask id="mask-2" fill="white">
                <use xlink:href="#path-1"></use>
            </mask>
            <g id="Combined-Shape" fill-rule="nonzero"></g>
            <g id="color-/-1---primary" mask="url(#mask-2)" fill="#000000">
                <rect id="color" x="0" y="0" width="24" height="24"></rect>
            </g>
        </g>
    </g>
</svg>