<?xml version="1.0" encoding="UTF-8"?>
<svg width="24px" height="24px" viewBox="0 0 24 24" version="1.1" xmlns="http://www.w3.org/2000/svg" xmlns:xlink="http://www.w3.org/1999/xlink">
    <!-- Generator: Sketch 49.3 (51167) - http://www.bohemiancoding.com/sketch -->
    <title>24 / bar-chart</title>
    <desc>Created with Sketch.</desc>
    <defs>
        <path d="M3,3 L21,3 C22.1045695,3 23,3.8954305 23,5 L23,19 C23,20.1045695 22.1045695,21 21,21 L3,21 C1.8954305,21 1,20.1045695 1,19 L1,5 C1,3.8954305 1.8954305,3 3,3 Z M3,5 L3,19 L21,19 L21,5 L3,5 Z M9,17 L7,17 L7,11 L9,11 L9,17 Z M13,17 L11,17 L11,7 L13,7 L13,17 Z M17,17 L15,17 L15,10 L17,10 L17,17 Z" id="path-1"></path>
    </defs>
    <g id="24-/-bar-chart" stroke="none" stroke-width="1" fill="none" fill-rule="evenodd">
        <g id="bar-chart">
            <rect id="placeholder" fill-opacity="0" fill="#FFFFFF" x="0" y="0" width="24" height="24"></rect>
            <mask id="mask-2" fill="white">
                <use xlink:href="#path-1"></use>
            </mask>
            <g id="Rectangle-7-Copy-3" fill-rule="nonzero"></g>
            <g id="color-/-1---primary" mask="url(#mask-2)" fill="#000000">
                <rect id="color" x="0" y="0" width="24" height="24"></rect>
            </g>
        </g>
    </g>
</svg>