<?xml version="1.0" encoding="UTF-8"?>
<svg width="24px" height="24px" viewBox="0 0 24 24" version="1.1" xmlns="http://www.w3.org/2000/svg" xmlns:xlink="http://www.w3.org/1999/xlink">
    <!-- Generator: Sketch 49.3 (51167) - http://www.bohemiancoding.com/sketch -->
    <title>24 / battery-charching</title>
    <desc>Created with Sketch.</desc>
    <defs>
        <path d="M14,8 L14,6 L19,6 C20.1045695,6 21,6.8954305 21,8 L21,16 C21,17.1045695 20.1045695,18 19,18 L13,18 L13,16 L19,16 L19,8 L14,8 Z M8,16 L8,18 L3,18 C1.8954305,18 1,17.1045695 1,16 L1,8 C1,6.8954305 1.8954305,6 3,6 L9,6 L9,8 L3,8 L3,16 L8,16 Z M20,11 L20,9 L21,9 C22.1045695,9 23,9.8954305 23,11 L23,13 C23,14.1045695 22.1045695,15 21,15 L20,15 L20,13 L21,13 L21,11 L20,11 Z M15,11 L10,18 L11,13 L7,13 L12,6 L11,11 L15,11 Z" id="path-1"></path>
    </defs>
    <g id="24-/-battery-charching" stroke="none" stroke-width="1" fill="none" fill-rule="evenodd">
        <g id="battery-charching">
            <rect id="placeholder" fill-opacity="0" fill="#FFFFFF" x="0" y="0" width="24" height="24"></rect>
            <mask id="mask-2" fill="white">
                <use xlink:href="#path-1"></use>
            </mask>
            <g id="Rectangle-5-Copy-2" fill-rule="nonzero"></g>
            <g id="color-/-1---primary" mask="url(#mask-2)" fill="#000000">
                <rect id="color" x="0" y="0" width="24" height="24"></rect>
            </g>
        </g>
    </g>
</svg>