<?xml version="1.0" encoding="UTF-8"?>
<svg width="24px" height="24px" viewBox="0 0 24 24" version="1.1" xmlns="http://www.w3.org/2000/svg" xmlns:xlink="http://www.w3.org/1999/xlink">
    <!-- Generator: Sketch 49.3 (51167) - http://www.bohemiancoding.com/sketch -->
    <title>24 / bitcoin</title>
    <desc>Created with Sketch.</desc>
    <defs>
        <path d="M14,4.06437853 C16.4137328,4.38772165 18,5.92171577 18,8.5 C18,9.80666218 17.5925809,10.8451074 16.8765128,11.5936812 C18.2001695,12.3022124 19,13.6304361 19,15.5 C19,18.4022916 17.0724776,20 14.25,20 L14,20 L14,22 L12,22 L12,20 L10,20 L10,22 L8,22 L8,20 L6,20 L6,18 L8,18 L8,6 L6,6 L6,4 L8,4 L8,2 L10,2 L10,4 L12,4 L12,2 L14,2 L14,4.06437853 Z M13,6 L10,6 L10,11 L13,11 C14.9561749,11 16,10.1888576 16,8.5 C16,6.81114244 14.9561749,6 13,6 Z M10,13 L10,18 L14.25,18 C16.0421608,18 17,17.2060545 17,15.5 C17,13.7939455 16.0421608,13 14.25,13 L10,13 Z" id="path-1"></path>
    </defs>
    <g id="24-/-bitcoin" stroke="none" stroke-width="1" fill="none" fill-rule="evenodd">
        <rect id="placeholder" fill-opacity="0" fill="#FFFFFF" x="0" y="0" width="24" height="24"></rect>
        <mask id="mask-2" fill="white">
            <use xlink:href="#path-1"></use>
        </mask>
        <g id="Combined-Shape" fill-rule="nonzero"></g>
        <g id="color-/-1---primary" mask="url(#mask-2)" fill="#000000">
            <rect id="color" x="0" y="0" width="24" height="24"></rect>
        </g>
    </g>
</svg>