<?xml version="1.0" encoding="UTF-8"?>
<svg width="24px" height="24px" viewBox="0 0 24 24" version="1.1" xmlns="http://www.w3.org/2000/svg" xmlns:xlink="http://www.w3.org/1999/xlink">
    <!-- Generator: Sketch 49.3 (51167) - http://www.bohemiancoding.com/sketch -->
    <title>24 / block-align-left</title>
    <desc>Created with Sketch.</desc>
    <defs>
        <path d="M22,9.85714286 L22,14.1428571 C22,15.2056811 21.0732946,16 20,16 L7,16 C5.92670537,16 5,15.2056811 5,14.1428571 L5,9.85714286 C5,8.79431889 5.92670537,8 7,8 L20,8 C21.0732946,8 22,8.79431889 22,9.85714286 Z M7,10 L7,14 L20,14 L20,10 L7,10 Z M2,2 L4,2 L4,22 L2,22 L2,2 Z" id="path-1"></path>
    </defs>
    <g id="24-/-block-align-left" stroke="none" stroke-width="1" fill="none" fill-rule="evenodd">
        <g id="block-align-left">
            <rect id="placeholder" fill-opacity="0" fill="#FFFFFF" x="0" y="0" width="24" height="24"></rect>
            <mask id="mask-2" fill="white">
                <use xlink:href="#path-1"></use>
            </mask>
            <g id="Rectangle-13-Copy-8" fill-rule="nonzero"></g>
            <g id="color-/-1---primary" mask="url(#mask-2)" fill="#000000">
                <rect id="color" x="0" y="0" width="24" height="24"></rect>
            </g>
        </g>
    </g>
</svg>