<?xml version="1.0" encoding="UTF-8"?>
<svg width="24px" height="24px" viewBox="0 0 24 24" version="1.1" xmlns="http://www.w3.org/2000/svg" xmlns:xlink="http://www.w3.org/1999/xlink">
    <!-- Generator: Sketch 49.3 (51167) - http://www.bohemiancoding.com/sketch -->
    <title>24 / block-distribute-horizontally</title>
    <desc>Created with Sketch.</desc>
    <defs>
        <path d="M14.1428571,20 L9.85714286,20 C8.79431889,20 8,19.0732946 8,18 L8,6 C8,4.92670537 8.79431889,4 9.85714286,4 L14.1428571,4 C15.2056811,4 16,4.92670537 16,6 L16,18 C16,19.0732946 15.2056811,20 14.1428571,20 Z M14,6 L10,6 L10,18 L14,18 L14,6 Z M5,2 L7,2 L7,22 L5,22 L5,2 Z M17,2 L19,2 L19,22 L17,22 L17,2 Z" id="path-1"></path>
    </defs>
    <g id="24-/-block-distribute-horizontally" stroke="none" stroke-width="1" fill="none" fill-rule="evenodd">
        <g id="block-distribute-horizontally">
            <rect id="placeholder" fill-opacity="0" fill="#FFFFFF" x="0" y="0" width="24" height="24"></rect>
            <mask id="mask-2" fill="white">
                <use xlink:href="#path-1"></use>
            </mask>
            <g id="Mask" fill-rule="nonzero"></g>
            <g id="color-/-1---primary" mask="url(#mask-2)" fill="#000000">
                <rect id="color" x="0" y="0" width="24" height="24"></rect>
            </g>
        </g>
    </g>
</svg>