<?xml version="1.0" encoding="UTF-8"?>
<svg width="24px" height="24px" viewBox="0 0 24 24" version="1.1" xmlns="http://www.w3.org/2000/svg" xmlns:xlink="http://www.w3.org/1999/xlink">
    <!-- Generator: Sketch 49.3 (51167) - http://www.bohemiancoding.com/sketch -->
    <title>24 / block-align-bottom</title>
    <desc>Created with Sketch.</desc>
    <defs>
        <path d="M14.1428571,19 L9.85714286,19 C8.79431889,19 8,18.0732946 8,17 L8,4 C8,2.92670537 8.79431889,2 9.85714286,2 L14.1428571,2 C15.2056811,2 16,2.92670537 16,4 L16,17 C16,18.0732946 15.2056811,19 14.1428571,19 Z M14,4 L10,4 L10,17 L14,17 L14,4 Z M2,22 L2,20 L22,20 L22,22 L2,22 Z" id="path-1"></path>
    </defs>
    <g id="24-/-block-align-bottom" stroke="none" stroke-width="1" fill="none" fill-rule="evenodd">
        <g id="block-align-bottom">
            <rect id="placeholder" fill-opacity="0" fill="#FFFFFF" x="0" y="0" width="24" height="24"></rect>
            <mask id="mask-2" fill="white">
                <use xlink:href="#path-1"></use>
            </mask>
            <g id="Rectangle-13-Copy-8" fill-rule="nonzero"></g>
            <g id="color-/-1---primary" mask="url(#mask-2)" fill="#000000">
                <rect id="color" x="0" y="0" width="24" height="24"></rect>
            </g>
        </g>
    </g>
</svg>