<?xml version="1.0" encoding="UTF-8"?>
<svg width="24px" height="24px" viewBox="0 0 24 24" version="1.1" xmlns="http://www.w3.org/2000/svg" xmlns:xlink="http://www.w3.org/1999/xlink">
    <!-- Generator: Sketch 49.3 (51167) - http://www.bohemiancoding.com/sketch -->
    <title>24 / block-align-horizontally</title>
    <desc>Created with Sketch.</desc>
    <defs>
        <path d="M11,16 L4,16 C2.92670537,16 2,15.2056811 2,14.1428571 L2,9.85714286 C2,8.79431889 2.92670537,8 4,8 L11,8 L11,2 L13,2 L13,8 L20,8 C21.0732946,8 22,8.79431889 22,9.85714286 L22,14.1428571 C22,15.2056811 21.0732946,16 20,16 L13,16 L13,22 L11,22 L11,16 Z M4,10 L4,14 L20,14 L20,10 L4,10 Z" id="path-1"></path>
    </defs>
    <g id="24-/-block-align-horizontally" stroke="none" stroke-width="1" fill="none" fill-rule="evenodd">
        <g id="block-align-horizontally">
            <rect id="placeholder" fill-opacity="0" fill="#FFFFFF" x="0" y="0" width="24" height="24"></rect>
            <mask id="mask-2" fill="white">
                <use xlink:href="#path-1"></use>
            </mask>
            <g id="Rectangle-13-Copy-8" fill-rule="nonzero"></g>
            <g id="color-/-1---primary" mask="url(#mask-2)" fill="#000000">
                <rect id="color" x="0" y="0" width="24" height="24"></rect>
            </g>
        </g>
    </g>
</svg>