<?xml version="1.0" encoding="UTF-8"?>
<svg width="24px" height="24px" viewBox="0 0 24 24" version="1.1" xmlns="http://www.w3.org/2000/svg" xmlns:xlink="http://www.w3.org/1999/xlink">
    <!-- Generator: Sketch 49.3 (51167) - http://www.bohemiancoding.com/sketch -->
    <title>24 / block-distribute-vertically</title>
    <desc>Created with Sketch.</desc>
    <defs>
        <path d="M20,9.85714286 L20,14.1428571 C20,15.2056811 19.0732946,16 18,16 L6,16 C4.92670537,16 4,15.2056811 4,14.1428571 L4,9.85714286 C4,8.79431889 4.92670537,8 6,8 L18,8 C19.0732946,8 20,8.79431889 20,9.85714286 Z M6,10 L6,14 L18,14 L18,10 L6,10 Z M2,19 L2,17 L22,17 L22,19 L2,19 Z M2,7 L2,5 L22,5 L22,7 L2,7 Z" id="path-1"></path>
    </defs>
    <g id="24-/-block-distribute-vertically" stroke="none" stroke-width="1" fill="none" fill-rule="evenodd">
        <g id="block-distribute-vertically">
            <rect id="placeholder" fill-opacity="0" fill="#FFFFFF" x="0" y="0" width="24" height="24"></rect>
            <mask id="mask-2" fill="white">
                <use xlink:href="#path-1"></use>
            </mask>
            <g id="Rectangle-13-Copy-8" fill-rule="nonzero"></g>
            <g id="color-/-1---primary" mask="url(#mask-2)" fill="#000000">
                <rect id="color" x="0" y="0" width="24" height="24"></rect>
            </g>
        </g>
    </g>
</svg>