<?xml version="1.0" encoding="UTF-8"?>
<svg width="24px" height="24px" viewBox="0 0 24 24" version="1.1" xmlns="http://www.w3.org/2000/svg" xmlns:xlink="http://www.w3.org/1999/xlink">
    <!-- Generator: Sketch 49.3 (51167) - http://www.bohemiancoding.com/sketch -->
    <title>24 / block-align-right</title>
    <desc>Created with Sketch.</desc>
    <defs>
        <path d="M19,9.85714286 L19,14.1428571 C19,15.2056811 18.0732946,16 17,16 L4,16 C2.92670537,16 2,15.2056811 2,14.1428571 L2,9.85714286 C2,8.79431889 2.92670537,8 4,8 L17,8 C18.0732946,8 19,8.79431889 19,9.85714286 Z M4,10 L4,14 L17,14 L17,10 L4,10 Z M20,2 L22,2 L22,22 L20,22 L20,2 Z" id="path-1"></path>
    </defs>
    <g id="24-/-block-align-right" stroke="none" stroke-width="1" fill="none" fill-rule="evenodd">
        <g id="block-align-right">
            <rect id="placeholder" fill-opacity="0" fill="#FFFFFF" x="0" y="0" width="24" height="24"></rect>
            <mask id="mask-2" fill="white">
                <use xlink:href="#path-1"></use>
            </mask>
            <g id="Mask" fill-rule="nonzero"></g>
            <g id="color-/-1---primary" mask="url(#mask-2)" fill="#000000">
                <rect id="color" x="0" y="0" width="24" height="24"></rect>
            </g>
        </g>
    </g>
</svg>