<?xml version="1.0" encoding="UTF-8"?>
<svg width="24px" height="24px" viewBox="0 0 24 24" version="1.1" xmlns="http://www.w3.org/2000/svg" xmlns:xlink="http://www.w3.org/1999/xlink">
    <!-- Generator: Sketch 49.3 (51167) - http://www.bohemiancoding.com/sketch -->
    <title>24 / block-align-vertically</title>
    <desc>Created with Sketch.</desc>
    <defs>
        <path d="M8,11 L8,4 C8,2.92670537 8.79431889,2 9.85714286,2 L14.1428571,2 C15.2056811,2 16,2.92670537 16,4 L16,11 L22,11 L22,13 L16,13 L16,20 C16,21.0732946 15.2056811,22 14.1428571,22 L9.85714286,22 C8.79431889,22 8,21.0732946 8,20 L8,13 L2,13 L2,11 L8,11 Z M14,4 L10,4 L10,20 L14,20 L14,4 Z" id="path-1"></path>
    </defs>
    <g id="24-/-block-align-vertically" stroke="none" stroke-width="1" fill="none" fill-rule="evenodd">
        <g id="block-align-vertically">
            <rect id="placeholder" fill-opacity="0" fill="#FFFFFF" x="0" y="0" width="24" height="24"></rect>
            <mask id="mask-2" fill="white">
                <use xlink:href="#path-1"></use>
            </mask>
            <g id="Rectangle-13-Copy-8" fill-rule="nonzero"></g>
            <g id="color-/-1---primary" mask="url(#mask-2)" fill="#000000">
                <rect id="color" x="0" y="0" width="24" height="24"></rect>
            </g>
        </g>
    </g>
</svg>