<?xml version="1.0" encoding="UTF-8"?>
<svg width="24px" height="24px" viewBox="0 0 24 24" version="1.1" xmlns="http://www.w3.org/2000/svg" xmlns:xlink="http://www.w3.org/1999/xlink">
    <!-- Generator: Sketch 49.3 (51167) - http://www.bohemiancoding.com/sketch -->
    <title>24 / bluetooth-no</title>
    <desc>Created with Sketch.</desc>
    <defs>
        <path d="M6.29289322,7.70710678 L1.29289322,2.70710678 L2.70710678,1.29289322 L22.7071068,21.2928932 L21.2928932,22.7071068 L16,17.4142136 L11,22.4142136 L11,14.4142136 L7.70710678,17.7071068 L6.29289322,16.2928932 L10.5857864,12 L6.29289322,7.70710678 Z M13,14.4142136 L13,17.5857864 L14.5857864,16 L13,14.4142136 Z M11,6.78578649 L11,1.58578644 L17.4142136,8 L14.8142135,10.6 L13.4,9.18578646 L14.5857864,8 L13,6.41421356 L13,8.78578649 L11,6.78578649 Z" id="path-1"></path>
    </defs>
    <g id="24-/-bluetooth-no" stroke="none" stroke-width="1" fill="none" fill-rule="evenodd">
        <g id="bluetooth">
            <rect id="placeholder" fill-opacity="0" fill="#FFFFFF" x="0" y="0" width="24" height="24"></rect>
            <mask id="mask-2" fill="white">
                <use xlink:href="#path-1"></use>
            </mask>
            <g id="Path-10-Copy-5" fill-rule="nonzero"></g>
            <g id="color-/-1---primary" mask="url(#mask-2)" fill="#000000">
                <rect id="color" x="0" y="0" width="24" height="24"></rect>
            </g>
        </g>
    </g>
</svg>