<?xml version="1.0" encoding="UTF-8"?>
<svg width="24px" height="24px" viewBox="0 0 24 24" version="1.1" xmlns="http://www.w3.org/2000/svg" xmlns:xlink="http://www.w3.org/1999/xlink">
    <!-- Generator: Sketch 49.3 (51167) - http://www.bohemiancoding.com/sketch -->
    <title>24 / book</title>
    <desc>Created with Sketch.</desc>
    <defs>
        <path d="M21,20 L21,22 L6,22 C4.34314575,22 3,20.6568542 3,19 C3,17.3431458 4.34314575,16 6,16 L21,16 L21,18 L6,18 C5.44771525,18 5,18.4477153 5,19 C5,19.5522847 5.44771525,20 6,20 L21,20 Z M19,16.7638935 L19,4 L6,4 C5.44771525,4 5,4.44771525 5,5 L5,19 L3,19 L3,5 C3,3.34314575 4.34314575,2 6,2 L21,2 L21,18 C20.4477153,18 20,18.4477153 20,19 C20,19.5522847 20.4477153,20 21,20 L21,22 C19.3431458,22 18,20.6568542 18,19 C18,18.1115002 18.3862506,17.313214 19,16.7638935 Z" id="path-1"></path>
    </defs>
    <g id="24-/-book" stroke="none" stroke-width="1" fill="none" fill-rule="evenodd">
        <g id="book">
            <rect id="placeholder" fill-opacity="0" fill="#FFFFFF" x="0" y="0" width="24" height="24"></rect>
            <mask id="mask-2" fill="white">
                <use xlink:href="#path-1"></use>
            </mask>
            <g id="Shape" fill-rule="nonzero"></g>
            <g id="color-/-1---primary" mask="url(#mask-2)" fill="#000000">
                <rect id="color" x="0" y="0" width="24" height="24"></rect>
            </g>
        </g>
    </g>
</svg>