<?xml version="1.0" encoding="UTF-8"?>
<svg width="24px" height="24px" viewBox="0 0 24 24" version="1.1" xmlns="http://www.w3.org/2000/svg" xmlns:xlink="http://www.w3.org/1999/xlink">
    <!-- Generator: Sketch 49.3 (51167) - http://www.bohemiancoding.com/sketch -->
    <title>24 / bookmarks-collection</title>
    <desc>Created with Sketch.</desc>
    <defs>
        <path d="M12,15.118034 L7,17.618034 L7,4 C7,2.8954305 7.8954305,2 9,2 L15,2 C16.1045695,2 17,2.8954305 17,4 L17,17.618034 L12,15.118034 Z M12,12.881966 L15,14.381966 L15,4 L9,4 L9,14.381966 L12,12.881966 Z M18,4 L18,2 L20,2 C21.1045695,2 22,2.8954305 22,4 L22,20 C22,21.1045695 21.1045695,22 20,22 L4,22 C2.8954305,22 2,21.1045695 2,20 L2,4 C2,2.8954305 2.8954305,2 4,2 L6,2 L6,4 L4,4 L4,20 L20,20 L20,4 L18,4 Z" id="path-1"></path>
    </defs>
    <g id="24-/-bookmarks-collection" stroke="none" stroke-width="1" fill="none" fill-rule="evenodd">
        <g id="bookmarks-collection">
            <rect id="placeholder" fill-opacity="0" fill="#FFFFFF" x="0" y="0" width="24" height="24"></rect>
            <mask id="mask-2" fill="white">
                <use xlink:href="#path-1"></use>
            </mask>
            <g id="Shape" fill-rule="nonzero"></g>
            <g id="color-/-1---primary" mask="url(#mask-2)" fill="#000000">
                <rect id="color" x="0" y="0" width="24" height="24"></rect>
            </g>
        </g>
    </g>
</svg>