<?xml version="1.0" encoding="UTF-8"?>
<svg width="24px" height="24px" viewBox="0 0 24 24" version="1.1" xmlns="http://www.w3.org/2000/svg" xmlns:xlink="http://www.w3.org/1999/xlink">
    <!-- Generator: Sketch 49.3 (51167) - http://www.bohemiancoding.com/sketch -->
    <title>24 / bookmark-add</title>
    <desc>Created with Sketch.</desc>
    <defs>
        <path d="M17,20.381966 L17,17 L19,17 L19,23.618034 L12,20.118034 L5,23.618034 L5,3 C5,1.8954305 5.8954305,1 7,1 L17,1 C18.1045695,1 19,1.8954305 19,3 L19,7 L17,7 L17,3 L7,3 L7,20.381966 L12,17.881966 L17,20.381966 Z M18,11 L18,9 L20,9 L20,11 L22,11 L22,13 L20,13 L20,15 L18,15 L18,13 L16,13 L16,11 L18,11 Z" id="path-1"></path>
    </defs>
    <g id="24-/-bookmark-add" stroke="none" stroke-width="1" fill="none" fill-rule="evenodd">
        <g id="bookmark-add">
            <rect id="placeholder" fill-opacity="0" fill="#FFFFFF" x="0" y="0" width="24" height="24"></rect>
            <mask id="mask-2" fill="white">
                <use xlink:href="#path-1"></use>
            </mask>
            <g id="Combined-Shape" fill-rule="nonzero"></g>
            <g id="color-/-1---primary" mask="url(#mask-2)" fill="#000000">
                <rect id="color" x="0" y="0" width="24" height="24"></rect>
            </g>
        </g>
    </g>
</svg>