<?xml version="1.0" encoding="UTF-8"?>
<svg width="24px" height="24px" viewBox="0 0 24 24" version="1.1" xmlns="http://www.w3.org/2000/svg" xmlns:xlink="http://www.w3.org/1999/xlink">
    <!-- Generator: Sketch 49.3 (51167) - http://www.bohemiancoding.com/sketch -->
    <title>24 / box</title>
    <desc>Created with Sketch.</desc>
    <defs>
        <path d="M20,7 L20,19 C20,20.1045695 19.1045695,21 18,21 L6,21 C4.8954305,21 4,20.1045695 4,19 L4,7 L20,7 Z M6,9 L6,19 L18,19 L18,9 L6,9 Z M4,3 L20,3 C21.1045695,3 22,3.8954305 22,5 L22,7 C22,8.1045695 21.1045695,9 20,9 L4,9 C2.8954305,9 2,8.1045695 2,7 L2,5 C2,3.8954305 2.8954305,3 4,3 Z M4,5 L4,7 L20,7 L20,5 L4,5 Z M9,12 L9,10 L15,10 L15,12 L9,12 Z" id="path-1"></path>
    </defs>
    <g id="24-/-box" stroke="none" stroke-width="1" fill="none" fill-rule="evenodd">
        <g id="box">
            <rect id="placeholder" fill-opacity="0" fill="#FFFFFF" x="0" y="0" width="24" height="24"></rect>
            <mask id="mask-2" fill="white">
                <use xlink:href="#path-1"></use>
            </mask>
            <g id="Shape" fill-rule="nonzero"></g>
            <g id="color-/-1---primary" mask="url(#mask-2)" fill="#000000">
                <rect id="color" x="0" y="0" width="24" height="24"></rect>
            </g>
        </g>
    </g>
</svg>