<?xml version="1.0" encoding="UTF-8"?>
<svg width="24px" height="24px" viewBox="0 0 24 24" version="1.1" xmlns="http://www.w3.org/2000/svg" xmlns:xlink="http://www.w3.org/1999/xlink">
    <!-- Generator: Sketch 49.3 (51167) - http://www.bohemiancoding.com/sketch -->
    <title>24 / browser-no</title>
    <desc>Created with Sketch.</desc>
    <defs>
        <path d="M12,15.4142136 L9.70710678,17.7071068 L8.29289322,16.2928932 L10.5857864,14 L8.29289322,11.7071068 L9.70710678,10.2928932 L12,12.5857864 L14.2928932,10.2928932 L15.7071068,11.7071068 L13.4142136,14 L15.7071068,16.2928932 L14.2928932,17.7071068 L12,15.4142136 Z M21,9 L3,9 L3,19 L21,19 L21,9 Z M21,7 L21,5 L3,5 L3,7 L21,7 Z M3,21 C1.8954305,21 1,20.1045695 1,19 L1,5 C1,3.8954305 1.8954305,3 3,3 L21,3 C22.1045695,3 23,3.8954305 23,5 L23,19 C23,20.1045695 22.1045695,21 21,21 L3,21 Z" id="path-1"></path>
    </defs>
    <g id="24-/-browser-no" stroke="none" stroke-width="1" fill="none" fill-rule="evenodd">
        <g id="browser-no">
            <rect id="placeholder" fill-opacity="0" fill="#FFFFFF" x="0" y="0" width="24" height="24"></rect>
            <mask id="mask-2" fill="white">
                <use xlink:href="#path-1"></use>
            </mask>
            <g id="Shape" fill-rule="nonzero"></g>
            <g id="color-/-1---primary" mask="url(#mask-2)" fill="#000000">
                <rect id="color" x="0" y="0" width="24" height="24"></rect>
            </g>
        </g>
    </g>
</svg>