<?xml version="1.0" encoding="UTF-8"?>
<svg width="24px" height="24px" viewBox="0 0 24 24" version="1.1" xmlns="http://www.w3.org/2000/svg" xmlns:xlink="http://www.w3.org/1999/xlink">
    <!-- Generator: Sketch 49.3 (51167) - http://www.bohemiancoding.com/sketch -->
    <title>24 / calendar-minus</title>
    <desc>Created with Sketch.</desc>
    <defs>
        <path d="M20,8 L20,5 L18,5 L18,6 L16,6 L16,5 L8,5 L8,6 L6,6 L6,5 L4,5 L4,8 L20,8 Z M20,10 L4,10 L4,20 L20,20 L20,10 Z M18,3 L20,3 C21.1045695,3 22,3.8954305 22,5 L22,20 C22,21.1045695 21.1045695,22 20,22 L4,22 C2.8954305,22 2,21.1045695 2,20 L2,5 C2,3.8954305 2.8954305,3 4,3 L6,3 L6,2 L8,2 L8,3 L16,3 L16,2 L18,2 L18,3 Z M8,16 L8,14 L16,14 L16,16 L8,16 Z" id="path-1"></path>
    </defs>
    <g id="24-/-calendar-minus" stroke="none" stroke-width="1" fill="none" fill-rule="evenodd">
        <g id="calendar-minus">
            <rect id="placeholder" fill-opacity="0" fill="#FFFFFF" x="0" y="0" width="24" height="24"></rect>
            <mask id="mask-2" fill="white">
                <use xlink:href="#path-1"></use>
            </mask>
            <g id="Shape" fill-rule="nonzero"></g>
            <g id="color-/-1---primary" mask="url(#mask-2)" fill="#000000">
                <rect id="color" x="0" y="0" width="24" height="24"></rect>
            </g>
        </g>
    </g>
</svg>