<?xml version="1.0" encoding="UTF-8"?>
<svg width="24px" height="24px" viewBox="0 0 24 24" version="1.1" xmlns="http://www.w3.org/2000/svg" xmlns:xlink="http://www.w3.org/1999/xlink">
    <!-- Generator: Sketch 49.3 (51167) - http://www.bohemiancoding.com/sketch -->
    <title>24 / case</title>
    <desc>Created with Sketch.</desc>
    <defs>
        <path d="M4,6 L20,6 C21.1045695,6 22,6.8954305 22,8 L22,19 C22,20.1045695 21.1045695,21 20,21 L4,21 C2.8954305,21 2,20.1045695 2,19 L2,8 C2,6.8954305 2.8954305,6 4,6 Z M4,8 L4,19 L20,19 L20,8 L4,8 Z M10,3 L14,3 C15.1045695,3 16,3.8954305 16,5 L16,8 L8,8 L8,5 C8,3.8954305 8.8954305,3 10,3 Z M14,6 L14,5 L10,5 L10,6 L14,6 Z M21,13 L21,15 L3,15 L3,13 L21,13 Z M13,16 L11,16 L11,13 L13,13 L13,16 Z" id="path-1"></path>
    </defs>
    <g id="24-/-case" stroke="none" stroke-width="1" fill="none" fill-rule="evenodd">
        <g id="case">
            <rect id="placeholder" fill-opacity="0" fill="#FFFFFF" x="0" y="0" width="24" height="24"></rect>
            <mask id="mask-2" fill="white">
                <use xlink:href="#path-1"></use>
            </mask>
            <g id="Shape" fill-rule="nonzero"></g>
            <g id="color-/-1---primary" mask="url(#mask-2)" fill="#000000">
                <rect id="color" x="0" y="0" width="24" height="24"></rect>
            </g>
        </g>
    </g>
</svg>