<?xml version="1.0" encoding="UTF-8"?>
<svg width="24px" height="24px" viewBox="0 0 24 24" version="1.1" xmlns="http://www.w3.org/2000/svg" xmlns:xlink="http://www.w3.org/1999/xlink">
    <!-- Generator: Sketch 49.3 (51167) - http://www.bohemiancoding.com/sketch -->
    <title>24 / cast</title>
    <desc>Created with Sketch.</desc>
    <defs>
        <path d="M1,21 L1,19 C2.1045695,19 3,19.8954305 3,21 L1,21 Z M7,21 L5,21 C5,18.790861 3.209139,17 1,17 L1,15 C4.3137085,15 7,17.6862915 7,21 Z M11,21 L9,21 C9,16.581722 5.418278,13 1,13 L1,11 C6.5228475,11 11,15.4771525 11,21 Z M3,9 L1,9 L1,5 C1,3.8954305 1.8954305,3 3,3 L21,3 C22.1045695,3 23,3.8954305 23,5 L23,19 C23,20.1045695 22.1045695,21 21,21 L13,21 L13,19 L21,19 L21,5 L3,5 L3,9 Z" id="path-1"></path>
    </defs>
    <g id="24-/-cast" stroke="none" stroke-width="1" fill="none" fill-rule="evenodd">
        <g id="cast">
            <rect id="placeholder" fill-opacity="0" fill="#FFFFFF" x="0" y="0" width="24" height="24"></rect>
            <mask id="mask-2" fill="white">
                <use xlink:href="#path-1"></use>
            </mask>
            <g id="Combined-Shape" fill-rule="nonzero"></g>
            <g id="color-/-1---primary" mask="url(#mask-2)" fill="#000000">
                <rect id="color" x="0" y="0" width="24" height="24"></rect>
            </g>
        </g>
    </g>
</svg>