<?xml version="1.0" encoding="UTF-8"?>
<svg width="24px" height="24px" viewBox="0 0 24 24" version="1.1" xmlns="http://www.w3.org/2000/svg" xmlns:xlink="http://www.w3.org/1999/xlink">
    <!-- Generator: Sketch 49.3 (51167) - http://www.bohemiancoding.com/sketch -->
    <title>24 / comment-text</title>
    <desc>Created with Sketch.</desc>
    <defs>
        <path d="M12.0867962,19 L6,22.8042476 L6,19 L4,19 C2.8954305,19 2,18.1045695 2,17 L2,5 C2,3.8954305 2.8954305,3 4,3 L20,3 C21.1045695,3 22,3.8954305 22,5 L22,17 C22,18.1045695 21.1045695,19 20,19 L12.0867962,19 Z M8,19.1957524 L11.5132038,17 L20,17 L20,5 L4,5 L4,17 L8,17 L8,19.1957524 Z M7,14 L7,12 L14,12 L14,14 L7,14 Z M7,10 L7,8 L16,8 L16,10 L7,10 Z" id="path-1"></path>
    </defs>
    <g id="24-/-comment-text" stroke="none" stroke-width="1" fill="none" fill-rule="evenodd">
        <g id="comment-text">
            <rect id="placeholder" fill-opacity="0" fill="#FFFFFF" x="0" y="0" width="24" height="24"></rect>
            <mask id="mask-2" fill="white">
                <use xlink:href="#path-1"></use>
            </mask>
            <g id="Shape" fill-rule="nonzero"></g>
            <g id="color-/-1---primary" mask="url(#mask-2)" fill="#000000">
                <rect id="color" x="0" y="0" width="24" height="24"></rect>
            </g>
        </g>
    </g>
</svg>