<?xml version="1.0" encoding="UTF-8"?>
<svg width="24px" height="24px" viewBox="0 0 24 24" version="1.1" xmlns="http://www.w3.org/2000/svg" xmlns:xlink="http://www.w3.org/1999/xlink">
    <!-- Generator: Sketch 49.3 (51167) - http://www.bohemiancoding.com/sketch -->
    <title>24 / copy</title>
    <desc>Created with Sketch.</desc>
    <defs>
        <path d="M16,16 L16,20 C16,21.1522847 15.1522847,22 14,22 L4,22 C2.84771525,22 2,21.1522847 2,20 L2,10 C2,8.84771525 2.84771525,8 4,8 L8,8 L8,4 C8,2.84771525 8.84771525,2 10,2 L20,2 C21.1522847,2 22,2.84771525 22,4 L22,14 C22,15.1522847 21.1522847,16 20,16 L16,16 Z M14,16 L10,16 C8.84771525,16 8,15.1522847 8,14 L8,10 L4,10 L4,20 L14,20 L14,16 Z M10,4 L10,14 L20,14 L20,4 L10,4 Z" id="path-1"></path>
    </defs>
    <g id="24-/-copy" stroke="none" stroke-width="1" fill="none" fill-rule="evenodd">
        <g id="copy">
            <rect id="placeholder" fill-opacity="0" fill="#FFFFFF" x="0" y="0" width="24" height="24"></rect>
            <mask id="mask-2" fill="white">
                <use xlink:href="#path-1"></use>
            </mask>
            <g id="Shape" fill-rule="nonzero"></g>
            <g id="color-/-1---primary" mask="url(#mask-2)" fill="#000000">
                <rect id="color" x="0" y="0" width="24" height="24"></rect>
            </g>
        </g>
    </g>
</svg>