<?xml version="1.0" encoding="UTF-8"?>
<svg width="24px" height="24px" viewBox="0 0 24 24" version="1.1" xmlns="http://www.w3.org/2000/svg" xmlns:xlink="http://www.w3.org/1999/xlink">
    <!-- Generator: Sketch 49.3 (51167) - http://www.bohemiancoding.com/sketch -->
    <title>24 / download</title>
    <desc>Created with Sketch.</desc>
    <defs>
        <path d="M7,11 L7,4 C7,2.8954305 7.8954305,2 9,2 L15,2 C16.1045695,2 17,2.8954305 17,4 L17,11 L22,11 L12,19.5846559 L2,11 L7,11 Z M15,11 L15,4 L9,4 L9,11 L9,13 L7.70325741,13 L12,16.9505003 L16.2967426,13 L15,13 L15,11 Z M21,20 C21,21.1045695 20.1045695,22 19,22 L5,22 C3.8954305,22 3,21.1045695 3,20 L21,20 Z" id="path-1"></path>
    </defs>
    <g id="24-/-download" stroke="none" stroke-width="1" fill="none" fill-rule="evenodd">
        <g id="download">
            <rect id="placeholder" fill-opacity="0" fill="#FFFFFF" x="0" y="0" width="24" height="24"></rect>
            <mask id="mask-2" fill="white">
                <use xlink:href="#path-1"></use>
            </mask>
            <g id="Combined-Shape" fill-rule="nonzero"></g>
            <g id="color-/-1---primary" mask="url(#mask-2)" fill="#000000">
                <rect id="color" x="0" y="0" width="24" height="24"></rect>
            </g>
        </g>
    </g>
</svg>