<?xml version="1.0" encoding="UTF-8"?>
<svg width="24px" height="24px" viewBox="0 0 24 24" version="1.1" xmlns="http://www.w3.org/2000/svg" xmlns:xlink="http://www.w3.org/1999/xlink">
    <!-- Generator: Sketch 49.3 (51167) - http://www.bohemiancoding.com/sketch -->
    <title>24 / file-plus</title>
    <desc>Created with Sketch.</desc>
    <defs>
        <path d="M15,3.41421356 L15,7 L18.5857864,7 L15,3.41421356 Z M19,9 L15,9 C13.8954305,9 13,8.1045695 13,7 L13,3 L5,3 L5,21 L19,21 L19,9 Z M5,1 L15.4142136,1 L21,6.58578644 L21,21 C21,22.1045695 20.1045695,23 19,23 L5,23 C3.8954305,23 3,22.1045695 3,21 L3,3 C3,1.8954305 3.8954305,1 5,1 Z M11,13 L11,10 L13,10 L13,13 L16,13 L16,15 L13,15 L13,18 L11,18 L11,15 L8,15 L8,13 L11,13 Z" id="path-1"></path>
    </defs>
    <g id="24-/-file-plus" stroke="none" stroke-width="1" fill="none" fill-rule="evenodd">
        <g id="file-plus">
            <rect id="placeholder" fill-opacity="0" fill="#FFFFFF" x="0" y="0" width="24" height="24"></rect>
            <mask id="mask-2" fill="white">
                <use xlink:href="#path-1"></use>
            </mask>
            <g id="Shape" fill-rule="nonzero"></g>
            <g id="color-/-1---primary" mask="url(#mask-2)" fill="#000000">
                <rect id="color" x="0" y="0" width="24" height="24"></rect>
            </g>
        </g>
    </g>
</svg>