<?xml version="1.0" encoding="UTF-8"?>
<svg width="24px" height="24px" viewBox="0 0 24 24" version="1.1" xmlns="http://www.w3.org/2000/svg" xmlns:xlink="http://www.w3.org/1999/xlink">
    <!-- Generator: Sketch 49.3 (51167) - http://www.bohemiancoding.com/sketch -->
    <title>24 / globe</title>
    <desc>Created with Sketch.</desc>
    <defs>
        <path d="M12,1 C18.0751322,1 23,5.92486775 23,12 C23,18.0751322 18.0751322,23 12,23 C5.92486775,23 1,18.0751322 1,12 C1,5.92486775 5.92486775,1 12,1 Z M12,3 C7.02943725,3 3,7.02943725 3,12 C3,16.9705627 7.02943725,21 12,21 C16.9705627,21 21,16.9705627 21,12 C21,7.02943725 16.9705627,3 12,3 Z M16.9962215,12.4541275 C19.242909,11.9560561 20.8529735,11.2139797 21.0630084,10.6506482 L22.9369916,11.3493518 C22.4343334,12.6975243 20.0304218,13.8950067 16.8792306,14.5268844 C16.4062579,19.3578177 14.578172,23 12,23 C9.43678353,23 7.61497612,19.3999504 7.12913699,14.610834 C3.84210321,14.0394835 1.51422221,12.8676095 1.04183574,11.2862189 L2.95816426,10.7137811 C3.07425939,11.1024285 3.94027885,11.6865223 5.40825505,12.1475117 C5.89667659,12.300891 6.43159753,12.4357216 7.00555318,12.5502212 C7.00186026,12.3678797 7,12.1844353 7,12 C7,5.97044135 8.9881834,1 12,1 C15.0118166,1 17,5.97044135 17,12 C17,12.1520704 16.9987353,12.3034672 16.9962215,12.4541275 Z M14.9862915,12.8045103 C14.9953365,12.5396718 15,12.2713459 15,12 C15,6.98399319 13.4063972,3 12,3 C10.5936028,3 9,6.98399319 9,12 C9,12.2869698 9.00521598,12.5705617 9.01531448,12.8502229 C9.95340738,12.9482908 10.9557722,13 12,13 C13.0280488,13 14.0367397,12.9274936 14.9862915,12.8045103 Z M14.8252793,14.8441424 C13.9124489,14.9453996 12.9633249,15 12,15 C11.0208804,15 10.0760086,14.9581505 9.17890858,14.8773334 C9.6334669,18.4574369 10.8764702,21 12,21 C13.1269987,21 14.3742099,18.441712 14.8252793,14.8441424 Z" id="path-1"></path>
    </defs>
    <g id="24-/-globe" stroke="none" stroke-width="1" fill="none" fill-rule="evenodd">
        <g id="globe">
            <rect id="placeholder" fill-opacity="0" fill="#FFFFFF" x="0" y="0" width="24" height="24"></rect>
            <mask id="mask-2" fill="white">
                <use xlink:href="#path-1"></use>
            </mask>
            <g id="Shape" fill-rule="nonzero"></g>
            <g id="color-/-1---primary" mask="url(#mask-2)" fill="#000000">
                <rect id="color" x="0" y="0" width="24" height="24"></rect>
            </g>
        </g>
    </g>
</svg>