<?xml version="1.0" encoding="UTF-8"?>
<svg width="24px" height="24px" viewBox="0 0 24 24" version="1.1" xmlns="http://www.w3.org/2000/svg" xmlns:xlink="http://www.w3.org/1999/xlink">
    <!-- Generator: Sketch 49.3 (51167) - http://www.bohemiancoding.com/sketch -->
    <title>24 / globe-no</title>
    <desc>Created with Sketch.</desc>
    <defs>
        <path d="M16.9558088,13.5415953 L14.9963077,11.5820941 C14.9111073,6.76450614 13.3671076,3 12,3 C11.1991994,3 10.337704,4.29166934 9.74426427,6.3300507 L8.1621829,4.74796933 C9.03964023,2.45603644 10.369889,1 12,1 C15.0118166,1 17,5.97044135 17,12 C17,12.5226729 16.9850602,13.0373872 16.9558088,13.5415953 Z M16.6727013,16.0869149 C15.9915672,20.1208526 14.2922554,23 12,23 C8.9881834,23 7,18.0295587 7,12 C7,10.1780589 7.18153236,8.45282122 7.51798546,6.93219903 L9.24323265,8.65744621 C9.08889867,9.68813069 9,10.8152801 9,12 C9,17.0160068 10.5936028,21 12,21 C13.1829639,21 14.4983759,18.1813214 14.8864757,14.3006892 L16.6727013,16.0869149 Z M4.96810063,6.38231419 C3.9508227,7.65402404 3.27134612,9.20771349 3.06564935,10.9074041 C3.35718942,11.2805411 4.16781668,11.7579761 5.40825505,12.1475117 C7.04020336,12.6599933 9.19127499,12.965396 11.5830204,12.9972339 L4.96810063,6.38231419 Z M13.5395795,14.9537931 C13.0327957,14.9841849 12.5184545,15 12,15 C8.3037,15 5.09548625,14.4035786 3.10296429,13.3657859 C3.76101273,17.6882028 7.49375052,21 12,21 C14.1250137,21 16.078015,20.2635271 17.6176858,19.0318994 L13.5395795,14.953793 Z M19.0390562,20.4532698 C17.1315623,22.0433765 14.6774969,23 12,23 C5.92486775,23 1,18.0751322 1,12 C1,9.32250314 1.95662349,6.86843767 3.54673024,4.96094381 L1.29289322,2.70710678 L2.70710678,1.29289322 L22.7071068,21.2928932 L21.2928932,22.7071068 L19.0390562,20.4532698 Z M7.5752222,4.16100864 L6.11755524,2.70334168 C7.8188264,1.62460973 9.83647049,1 12,1 C18.0751322,1 23,5.92486775 23,12 C23,14.1635295 22.3753903,16.1811736 21.2966583,17.8824448 L19.8389914,16.4247778 C20.3917067,15.4476833 20.7670169,14.3569838 20.9211723,13.1964288 C20.0592999,13.6447264 18.9752627,14.0333209 17.7480317,14.3338181 L16.0553345,12.6411209 C18.4955283,12.2101464 20.3859301,11.4691759 20.9285035,10.8601361 C20.368303,6.42773395 16.5844466,3 12,3 C10.3916643,3 8.88186344,3.42187781 7.5752222,4.16100864 Z" id="path-1"></path>
    </defs>
    <g id="24-/-globe-no" stroke="none" stroke-width="1" fill="none" fill-rule="evenodd">
        <g id="globe-no">
            <rect id="placeholder" fill-opacity="0" fill="#FFFFFF" x="0" y="0" width="24" height="24"></rect>
            <mask id="mask-2" fill="white">
                <use xlink:href="#path-1"></use>
            </mask>
            <g id="Shape" fill-rule="nonzero"></g>
            <g id="color-/-1---primary" mask="url(#mask-2)" fill="#000000">
                <rect id="color" x="0" y="0" width="24" height="24"></rect>
            </g>
        </g>
    </g>
</svg>