<?xml version="1.0" encoding="UTF-8"?>
<svg width="24px" height="24px" viewBox="0 0 24 24" version="1.1" xmlns="http://www.w3.org/2000/svg" xmlns:xlink="http://www.w3.org/1999/xlink">
    <!-- Generator: Sketch 49.3 (51167) - http://www.bohemiancoding.com/sketch -->
    <title>24 / heart</title>
    <desc>Created with Sketch.</desc>
    <defs>
        <path d="M13.1700073,2.69013814 C14.2690408,2.17071757 15.2257088,1.99999852 16.7153604,2.00001552 C20.5229336,2.01524059 23.3567135,5.13303401 23.3567135,9.11987614 C23.3567135,12.1671303 21.6011126,15.1039139 18.3336952,17.9414079 C16.6205048,19.4291785 14.4332507,20.9014086 12.8682739,21.6838971 L12,22.118034 L11.1317261,21.6838971 C9.56674931,20.9014086 7.37949522,19.4291785 5.66630483,17.9414079 C2.39888739,15.1039139 0.643286537,12.1671303 0.643286537,9.11987614 C0.643286537,5.09051615 3.45049002,2 7.29240297,2 C8.72838449,2 9.73450926,2.18693414 10.8551428,2.72211033 C11.2591887,2.91506884 11.6382026,3.14534408 11.9899397,3.41236773 C12.3552052,3.12992505 12.7493174,2.88896278 13.1700073,2.69013814 Z M17.0223219,16.4313417 C19.8938064,13.9376841 21.3567135,11.4905211 21.3567135,9.11987614 C21.3567135,6.19577447 19.3706407,4.01064899 16.7113557,4.00000753 C15.4984526,4.00000017 14.8246627,4.12023913 14.0246017,4.49836057 C13.5332011,4.73060422 13.0980105,5.04357385 12.7193478,5.44030506 L12.0020961,6.19178168 L11.2784748,5.44643666 C10.9080948,5.06493754 10.479228,4.75895182 9.99325291,4.52686678 C9.16941334,4.13342922 8.45126501,4 7.29240297,4 C4.60025176,4 2.64328654,6.1544689 2.64328654,9.11987614 C2.64328654,11.4905211 4.10619359,13.9376841 6.97767814,16.4313417 C8.55588399,17.8018889 10.5880162,19.171604 12,19.8819258 C13.4119838,19.171604 15.444116,17.8018889 17.0223219,16.4313417 Z" id="path-1"></path>
    </defs>
    <g id="24-/-heart" stroke="none" stroke-width="1" fill="none" fill-rule="evenodd">
        <g id="heart">
            <rect id="placeholder" fill-opacity="0" fill="#FFFFFF" x="0" y="0" width="24" height="24"></rect>
            <mask id="mask-2" fill="white">
                <use xlink:href="#path-1"></use>
            </mask>
            <g id="Path" fill-rule="nonzero"></g>
            <g id="color-/-1---primary" mask="url(#mask-2)" fill="#000000">
                <rect id="color" x="0" y="0" width="24" height="24"></rect>
            </g>
        </g>
    </g>
</svg>