<?xml version="1.0" encoding="UTF-8"?>
<svg width="24px" height="24px" viewBox="0 0 24 24" version="1.1" xmlns="http://www.w3.org/2000/svg" xmlns:xlink="http://www.w3.org/1999/xlink">
    <!-- Generator: Sketch 49.3 (51167) - http://www.bohemiancoding.com/sketch -->
    <title>24 / inbox</title>
    <desc>Created with Sketch.</desc>
    <defs>
        <path d="M4.51653902,11 L10,11 L10,13 L14,13 L14,11 L19.4839973,11 L17.1106841,5.45729333 C16.9986635,5.23944262 16.8952849,5.08654336 16.8117527,4.99992782 L7.17592076,4.99623293 C7.09869779,5.07946042 7.00332603,5.2252937 6.91914503,5.3939193 L4.51653902,11 Z M20,13 L16,13 C16,14.1045695 15.1045695,15 14,15 L10,15 C8.8954305,15 8,14.1045695 8,13 L4,13 L4,19 L20,19 L20,13 Z M22,19 C22,20.1045695 21.1045695,21 20,21 L4,21 C2.8954305,21 2,20.1045695 2,19 L2,11.7947423 L2.08085497,11.6060807 L5.10236458,4.55926124 C5.55302653,3.64141565 6.12143587,3.07300632 7,3 L17,3 L17.1308208,3.00859397 C17.8836715,3.10793627 18.4350886,3.65935343 18.919145,4.6060807 L22,11.7947423 L22,19 Z" id="path-1"></path>
    </defs>
    <g id="24-/-inbox" stroke="none" stroke-width="1" fill="none" fill-rule="evenodd">
        <g id="inbox">
            <rect id="placeholder" fill-opacity="0" fill="#FFFFFF" x="0" y="0" width="24" height="24"></rect>
            <mask id="mask-2" fill="white">
                <use xlink:href="#path-1"></use>
            </mask>
            <g id="Shape" fill-rule="nonzero"></g>
            <g id="color-/-1---primary" mask="url(#mask-2)" fill="#000000">
                <rect id="color" x="0" y="0" width="24" height="24"></rect>
            </g>
        </g>
    </g>
</svg>