<?xml version="1.0" encoding="UTF-8"?>
<svg width="24px" height="24px" viewBox="0 0 24 24" version="1.1" xmlns="http://www.w3.org/2000/svg" xmlns:xlink="http://www.w3.org/1999/xlink">
    <!-- Generator: Sketch 49.3 (51167) - http://www.bohemiancoding.com/sketch -->
    <title>24 / listen-later</title>
    <desc>Created with Sketch.</desc>
    <defs>
        <path d="M10,17 L10,19 L3,19 C1.8954305,19 1,18.1045695 1,17 L1,3 C1,1.8954305 1.8954305,1 3,1 L17,1 C18.1045695,1 19,1.8954305 19,3 L19,10 L17,10 L17,3 L3,3 L3,17 L10,17 Z M8,7 L12.0120048,9.99403339 L8,12.9880668 L8,7 Z M17,23 C13.6862915,23 11,20.3137085 11,17 C11,13.6862915 13.6862915,11 17,11 C20.3137085,11 23,13.6862915 23,17 C23,20.3137085 20.3137085,23 17,23 Z M17,21 C19.209139,21 21,19.209139 21,17 C21,14.790861 19.209139,13 17,13 C14.790861,13 13,14.790861 13,17 C13,19.209139 14.790861,21 17,21 Z M16,18 L16,14 L18,14 L18,16 L20,16 L20,18 L16,18 Z" id="path-1"></path>
    </defs>
    <g id="24-/-listen-later" stroke="none" stroke-width="1" fill="none" fill-rule="evenodd">
        <g id="listen-later">
            <rect id="placeholder" fill-opacity="0" fill="#FFFFFF" x="0" y="0" width="24" height="24"></rect>
            <mask id="mask-2" fill="white">
                <use xlink:href="#path-1"></use>
            </mask>
            <g id="Combined-Shape" fill-rule="nonzero"></g>
            <g id="color-/-1---primary" mask="url(#mask-2)" fill="#000000">
                <rect id="color" x="0" y="0" width="24" height="24"></rect>
            </g>
        </g>
    </g>
</svg>