<?xml version="1.0" encoding="UTF-8"?>
<svg width="24px" height="24px" viewBox="0 0 24 24" version="1.1" xmlns="http://www.w3.org/2000/svg" xmlns:xlink="http://www.w3.org/1999/xlink">
    <!-- Generator: Sketch 49.3 (51167) - http://www.bohemiancoding.com/sketch -->
    <title>24 / lock-no</title>
    <desc>Created with Sketch.</desc>
    <defs>
        <path d="M20,18.9071068 L20,20.1666667 C20,21.2236261 19.0683513,22 18,22 L6,22 C4.93164867,22 4,21.2236261 4,20.1666667 L4,11.8333333 C4,10.7763739 4.93164867,10 6,10 L7,10 L7,7 C7,6.65962731 7.03401067,6.32719825 7.09881899,6.00592582 L9,7.90710683 L9,10 L11.0928932,10 L13.0928932,12 L6,12 L6,20 L18,20 L18,16.9071068 L20,18.9071068 Z M20,16.0786797 L18,14.0786797 L18,12 L15.9213203,12 L13.9213203,10 L15,10 L15,7 C15,5.34314575 13.6568542,4 12,4 C10.894797,4 9.92918,4.59763858 9.4086925,5.48737221 L7.96626499,4.0449447 C8.87618952,2.80496976 10.3440894,2 12,2 C14.7614237,2 17,4.23857625 17,7 L17,10 L18,10 C19.0683513,10 20,10.7763739 20,11.8333333 L20,16.0786797 Z M12,17 C11.4477153,17 11,16.5522847 11,16 C11,15.4477153 11.4477153,15 12,15 C12.5522847,15 13,15.4477153 13,16 C13,16.5522847 12.5522847,17 12,17 Z M1,2.70710678 L2.41421356,1.29289322 L22.4142136,21.2928932 L21,22.7071068 L1,2.70710678 Z" id="path-1"></path>
    </defs>
    <g id="24-/-lock-no" stroke="none" stroke-width="1" fill="none" fill-rule="evenodd">
        <g id="lock-no">
            <rect id="placeholder" fill-opacity="0" fill="#FFFFFF" x="0" y="0" width="24" height="24"></rect>
            <mask id="mask-2" fill="white">
                <use xlink:href="#path-1"></use>
            </mask>
            <g id="Shape" fill-rule="nonzero"></g>
            <g id="color-/-1---primary" mask="url(#mask-2)" fill="#000000">
                <rect id="color" x="0" y="0" width="24" height="24"></rect>
            </g>
        </g>
    </g>
</svg>