<?xml version="1.0" encoding="UTF-8"?>
<svg width="24px" height="24px" viewBox="0 0 24 24" version="1.1" xmlns="http://www.w3.org/2000/svg" xmlns:xlink="http://www.w3.org/1999/xlink">
    <!-- Generator: Sketch 49.3 (51167) - http://www.bohemiancoding.com/sketch -->
    <title>24 / mail</title>
    <desc>Created with Sketch.</desc>
    <defs>
        <path d="M21,7.38246601 L21,5 L3,5 L3,7.38199365 L12.0000224,11.8824548 L21,7.38246601 Z M21,9.61853399 L11.9999776,14.1185452 L3,9.61810635 L3,19 L21,19 L21,9.61853399 Z M3,3 L21,3 C22.1045695,3 23,3.8954305 23,5 L23,19 C23,20.1045695 22.1045695,21 21,21 L3,21 C1.8954305,21 1,20.1045695 1,19 L1,5 C1,3.8954305 1.8954305,3 3,3 Z" id="path-1"></path>
    </defs>
    <g id="24-/-mail" stroke="none" stroke-width="1" fill="none" fill-rule="evenodd">
        <g id="mail">
            <rect id="placeholder" fill-opacity="0" fill="#FFFFFF" x="0" y="0" width="24" height="24"></rect>
            <mask id="mask-2" fill="white">
                <use xlink:href="#path-1"></use>
            </mask>
            <g id="Shape" fill-rule="nonzero"></g>
            <g id="color-/-1---primary" mask="url(#mask-2)" fill="#000000">
                <rect id="color" x="0" y="0" width="24" height="24"></rect>
            </g>
        </g>
    </g>
</svg>