<?xml version="1.0" encoding="UTF-8"?>
<svg width="24px" height="24px" viewBox="0 0 24 24" version="1.1" xmlns="http://www.w3.org/2000/svg" xmlns:xlink="http://www.w3.org/1999/xlink">
    <!-- Generator: Sketch 49.3 (51167) - http://www.bohemiancoding.com/sketch -->
    <title>24 / newspaper</title>
    <desc>Created with Sketch.</desc>
    <defs>
        <path d="M20,8 L22,8 L22,18 C22,19.6568542 20.6568542,21 19,21 C17.3431458,21 16,19.6568542 16,18 L16,3 L18,3 L18,18 C18,18.5522847 18.4477153,19 19,19 C19.5522847,19 20,18.5522847 20,18 L20,8 Z M22,8 L22,10 L18,10 L18,8 L22,8 Z M4,5 L4,18 C4,18.5522847 4.44771525,19 5,19 L19,19 L19,21 L5,21 C3.34314575,21 2,19.6568542 2,18 L2,3 L17,3 L17,5 L4,5 Z M10,7 L10,11 L6,11 L6,7 L10,7 Z M14,8 L14,10 L11,10 L11,8 L14,8 Z M14,12 L14,14 L6,14 L6,12 L14,12 Z M14,15 L14,17 L6,17 L6,15 L14,15 Z" id="path-1"></path>
    </defs>
    <g id="24-/-newspaper" stroke="none" stroke-width="1" fill="none" fill-rule="evenodd">
        <g id="newspaper">
            <rect id="placeholder" fill-opacity="0" fill="#FFFFFF" x="0" y="0" width="24" height="24"></rect>
            <mask id="mask-2" fill="white">
                <use xlink:href="#path-1"></use>
            </mask>
            <g id="Combined-Shape" fill-rule="nonzero"></g>
            <g id="color-/-1---primary" mask="url(#mask-2)" fill="#000000">
                <rect id="color" x="0" y="0" width="24" height="24"></rect>
            </g>
        </g>
    </g>
</svg>