<?xml version="1.0" encoding="UTF-8"?>
<svg width="24px" height="24px" viewBox="0 0 24 24" version="1.1" xmlns="http://www.w3.org/2000/svg" xmlns:xlink="http://www.w3.org/1999/xlink">
    <!-- Generator: Sketch 49.3 (51167) - http://www.bohemiancoding.com/sketch -->
    <title>24 / note</title>
    <desc>Created with Sketch.</desc>
    <defs>
        <path d="M20,15 L20,4 L4,4 L4,20 L15,20 L15,17 C15,15.8954305 15.8954305,15 17,15 L20,15 Z M19.5857864,17 L17,17 L17,19.5857864 L19.5857864,17 Z M4,22 C2.8954305,22 2,21.1045695 2,20 L2,4 C2,2.8954305 2.8954305,2 4,2 L20,2 C21.1045695,2 22,2.8954305 22,4 L22,17.4142136 L17.4142136,22 L4,22 Z" id="path-1"></path>
    </defs>
    <g id="24-/-note" stroke="none" stroke-width="1" fill="none" fill-rule="evenodd">
        <g id="note">
            <rect id="placeholder" fill-opacity="0" fill="#FFFFFF" x="0" y="0" width="24" height="24"></rect>
            <mask id="mask-2" fill="white">
                <use xlink:href="#path-1"></use>
            </mask>
            <g id="Shape" fill-rule="nonzero"></g>
            <g id="color-/-1---primary" mask="url(#mask-2)" fill="#000000">
                <rect id="color" x="0" y="0" width="24" height="24"></rect>
            </g>
        </g>
    </g>
</svg>