<?xml version="1.0" encoding="UTF-8"?>
<svg width="24px" height="24px" viewBox="0 0 24 24" version="1.1" xmlns="http://www.w3.org/2000/svg" xmlns:xlink="http://www.w3.org/1999/xlink">
    <!-- Generator: Sketch 49.3 (51167) - http://www.bohemiancoding.com/sketch -->
    <title>24 / options</title>
    <desc>Created with Sketch.</desc>
    <defs>
        <path d="M5.12601749,16 C5.57006028,14.2747728 7.13616057,13 9,13 C11.209139,13 13,14.790861 13,17 C13,19.209139 11.209139,21 9,21 C7.13616057,21 5.57006028,19.7252272 5.12601749,18 L2,18 L2,16 L5.12601749,16 Z M14,18 L14,16 L22,16 L22,18 L14,18 Z M9,19 C10.1045695,19 11,18.1045695 11,17 C11,15.8954305 10.1045695,15 9,15 C7.8954305,15 7,15.8954305 7,17 C7,18.1045695 7.8954305,19 9,19 Z M19,8 L19,6 L22,6 L22,8 L19,8 Z M2,8 L2,6 L11,6 L11,8 L2,8 Z M14,11 C11.790861,11 10,9.209139 10,7 C10,4.790861 11.790861,3 14,3 C16.209139,3 18,4.790861 18,7 C18,9.209139 16.209139,11 14,11 Z M14,9 C15.1045695,9 16,8.1045695 16,7 C16,5.8954305 15.1045695,5 14,5 C12.8954305,5 12,5.8954305 12,7 C12,8.1045695 12.8954305,9 14,9 Z" id="path-1"></path>
    </defs>
    <g id="24-/-options" stroke="none" stroke-width="1" fill="none" fill-rule="evenodd">
        <g id="options">
            <rect id="placeholder" fill-opacity="0" fill="#FFFFFF" x="0" y="0" width="24" height="24"></rect>
            <mask id="mask-2" fill="white">
                <use xlink:href="#path-1"></use>
            </mask>
            <g id="Combined-Shape" fill-rule="nonzero"></g>
            <g id="color-/-1---primary" mask="url(#mask-2)" fill="#000000">
                <rect id="color" x="0" y="0" width="24" height="24"></rect>
            </g>
        </g>
    </g>
</svg>