<?xml version="1.0" encoding="UTF-8"?>
<svg width="24px" height="24px" viewBox="0 0 24 24" version="1.1" xmlns="http://www.w3.org/2000/svg" xmlns:xlink="http://www.w3.org/1999/xlink">
    <!-- Generator: Sketch 49.3 (51167) - http://www.bohemiancoding.com/sketch -->
    <title>24 / player-fast-forward</title>
    <desc>Created with Sketch.</desc>
    <defs>
        <path d="M2,19 L2,5 C2,4.14084119 3.01192171,3.68166327 3.65850461,4.24742331 L11.6585046,11.2474233 C12.1138318,11.6458346 12.1138318,12.3541654 11.6585046,12.7525767 L3.65850461,19.7525767 C3.01192171,20.3183367 2,19.8591588 2,19 Z M4,16.7962318 L9.48140774,12 L4,7.20376823 L4,16.7962318 Z M12,19 L12,5 C12,4.14084119 13.0119217,3.68166327 13.6585046,4.24742331 L21.6585046,11.2474233 C22.1138318,11.6458346 22.1138318,12.3541654 21.6585046,12.7525767 L13.6585046,19.7525767 C13.0119217,20.3183367 12,19.8591588 12,19 Z M19.4814077,12 L14,7.20376823 L14,16.7962318 L19.4814077,12 Z" id="path-1"></path>
    </defs>
    <g id="24-/-player-fast-forward" stroke="none" stroke-width="1" fill="none" fill-rule="evenodd">
        <g id="player-fast-forward">
            <rect id="placeholder" fill-opacity="0" fill="#FFFFFF" x="0" y="0" width="24" height="24"></rect>
            <mask id="mask-2" fill="white">
                <use xlink:href="#path-1"></use>
            </mask>
            <g id="Shape" fill-rule="nonzero"></g>
            <g id="color-/-1---primary" mask="url(#mask-2)" fill="#000000">
                <rect id="color" x="0" y="0" width="24" height="24"></rect>
            </g>
        </g>
    </g>
</svg>