<?xml version="1.0" encoding="UTF-8"?>
<svg width="24px" height="24px" viewBox="0 0 24 24" version="1.1" xmlns="http://www.w3.org/2000/svg" xmlns:xlink="http://www.w3.org/1999/xlink">
    <!-- Generator: Sketch 49.3 (51167) - http://www.bohemiancoding.com/sketch -->
    <title>24 / player-play-circle</title>
    <desc>Created with Sketch.</desc>
    <defs>
        <path d="M12,24 C5.372583,24 0,18.627417 0,12 C0,5.372583 5.372583,0 12,0 C18.627417,0 24,5.372583 24,12 C24,18.627417 18.627417,24 12,24 Z M12,22 C17.5228475,22 22,17.5228475 22,12 C22,6.4771525 17.5228475,2 12,2 C6.4771525,2 2,6.4771525 2,12 C2,17.5228475 6.4771525,22 12,22 Z M8,17 L8,7 C8,6.21456446 8.86395093,5.73572169 9.52999894,6.1520017 L17.5299989,11.1520017 C18.156667,11.5436692 18.156667,12.4563308 17.5299989,12.8479983 L9.52999894,17.8479983 C8.86395093,18.2642783 8,17.7854355 8,17 Z M15.1132038,12 L10,8.80424764 L10,15.1957524 L15.1132038,12 Z" id="path-1"></path>
    </defs>
    <g id="24-/-player-play-circle" stroke="none" stroke-width="1" fill="none" fill-rule="evenodd">
        <g id="player-play-circle">
            <rect id="placeholder" fill-opacity="0" fill="#FFFFFF" x="0" y="0" width="24" height="24"></rect>
            <mask id="mask-2" fill="white">
                <use xlink:href="#path-1"></use>
            </mask>
            <g id="Combined-Shape" fill-rule="nonzero"></g>
            <g id="color-/-1---primary" mask="url(#mask-2)" fill="#000000">
                <rect id="color" x="0" y="0" width="24" height="24"></rect>
            </g>
        </g>
    </g>
</svg>