<?xml version="1.0" encoding="UTF-8"?>
<svg width="24px" height="24px" viewBox="0 0 24 24" version="1.1" xmlns="http://www.w3.org/2000/svg" xmlns:xlink="http://www.w3.org/1999/xlink">
    <!-- Generator: Sketch 49.3 (51167) - http://www.bohemiancoding.com/sketch -->
    <title>24 / player-list-add</title>
    <desc>Created with Sketch.</desc>
    <defs>
        <path d="M18,17 L16,17 L16,15 L18,15 L18,13 L20,13 L20,15 L22,15 L22,17 L20,17 L20,19 L18,19 L18,17 Z M4,19 L4,17 L14,17 L14,19 L4,19 Z M4,15 L4,13 L14,13 L14,15 L4,15 Z M4,11 L4,9 L19,9 L19,11 L4,11 Z M4,7 L4,5 L19,5 L19,7 L4,7 Z" id="path-1"></path>
    </defs>
    <g id="24-/-player-list-add" stroke="none" stroke-width="1" fill="none" fill-rule="evenodd">
        <g id="player-list-add">
            <rect id="placeholder" fill-opacity="0" fill="#FFFFFF" x="0" y="0" width="24" height="24"></rect>
            <mask id="mask-2" fill="white">
                <use xlink:href="#path-1"></use>
            </mask>
            <g id="Combined-Shape" fill-rule="nonzero"></g>
            <g id="color-/-1---primary" mask="url(#mask-2)" fill="#000000">
                <rect id="color" x="0" y="0" width="24" height="24"></rect>
            </g>
        </g>
    </g>
</svg>