<?xml version="1.0" encoding="UTF-8"?>
<svg width="24px" height="24px" viewBox="0 0 24 24" version="1.1" xmlns="http://www.w3.org/2000/svg" xmlns:xlink="http://www.w3.org/1999/xlink">
    <!-- Generator: Sketch 49.3 (51167) - http://www.bohemiancoding.com/sketch -->
    <title>24 / player-fast-back</title>
    <desc>Created with Sketch.</desc>
    <defs>
        <path d="M10.3414954,19.7525767 L2.34149539,12.7525767 C1.8861682,12.3541654 1.8861682,11.6458346 2.34149539,11.2474233 L10.3414954,4.24742331 C10.9880783,3.68166327 12,4.14084119 12,5 L12,19 C12,19.8591588 10.9880783,20.3183367 10.3414954,19.7525767 Z M10,7.20376823 L4.51859226,12 L10,16.7962318 L10,7.20376823 Z M20.3414954,19.7525767 L12.3414954,12.7525767 C11.8861682,12.3541654 11.8861682,11.6458346 12.3414954,11.2474233 L20.3414954,4.24742331 C20.9880783,3.68166327 22,4.14084119 22,5 L22,19 C22,19.8591588 20.9880783,20.3183367 20.3414954,19.7525767 Z M20,16.7962318 L20,7.20376823 L14.5185923,12 L20,16.7962318 Z" id="path-1"></path>
    </defs>
    <g id="24-/-player-fast-back" stroke="none" stroke-width="1" fill="none" fill-rule="evenodd">
        <g id="player-fast-back">
            <rect id="placeholder" fill-opacity="0" fill="#FFFFFF" x="0" y="0" width="24" height="24"></rect>
            <mask id="mask-2" fill="white">
                <use xlink:href="#path-1"></use>
            </mask>
            <g id="Shape" fill-rule="nonzero"></g>
            <g id="color-/-1---primary" mask="url(#mask-2)" fill="#000000">
                <rect id="color" x="0" y="0" width="24" height="24"></rect>
            </g>
        </g>
    </g>
</svg>