<?xml version="1.0" encoding="UTF-8"?>
<svg width="24px" height="24px" viewBox="0 0 24 24" version="1.1" xmlns="http://www.w3.org/2000/svg" xmlns:xlink="http://www.w3.org/1999/xlink">
    <!-- Generator: Sketch 49.3 (51167) - http://www.bohemiancoding.com/sketch -->
    <title>24 / queue</title>
    <desc>Created with Sketch.</desc>
    <defs>
        <path d="M23,19 C23,20.1045695 22.1045695,21 21,21 L9,21 C7.8954305,21 7,20.1045695 7,19 L7,5 C7,3.8954305 7.8954305,3 9,3 L21,3 C22.1045695,3 23,3.8954305 23,5 L23,19 Z M6,20 C4.8954305,20 4,19.1045695 4,18 L4,6 C4,4.8954305 4.8954305,4 6,4 L6,20 Z M3,19 C1.8954305,19 1,18.1045695 1,17 L1,7 C1,5.8954305 1.8954305,5 3,5 L3,19 Z M21,19 L21,5 L9,5 L9,19 L21,19 Z M13,9 L17.0120048,11.9940334 L13,14.9880668 L13,9 Z" id="path-1"></path>
    </defs>
    <g id="24-/-queue" stroke="none" stroke-width="1" fill="none" fill-rule="evenodd">
        <g id="queue">
            <rect id="placeholder" fill-opacity="0" fill="#FFFFFF" x="0" y="0" width="24" height="24"></rect>
            <mask id="mask-2" fill="white">
                <use xlink:href="#path-1"></use>
            </mask>
            <g id="Combined-Shape" fill-rule="nonzero"></g>
            <g id="color-/-1---primary" mask="url(#mask-2)" fill="#000000">
                <rect id="color" x="0" y="0" width="24" height="24"></rect>
            </g>
        </g>
    </g>
</svg>