<?xml version="1.0" encoding="UTF-8"?>
<svg width="24px" height="24px" viewBox="0 0 24 24" version="1.1" xmlns="http://www.w3.org/2000/svg" xmlns:xlink="http://www.w3.org/1999/xlink">
    <!-- Generator: Sketch 49.3 (51167) - http://www.bohemiancoding.com/sketch -->
    <title>24 / share</title>
    <desc>Created with Sketch.</desc>
    <defs>
        <path d="M8.91207766,11.1619952 C8.9696849,11.4322343 9,11.7125769 9,12 C9,12.2874231 8.9696849,12.5677657 8.91207766,12.8380048 L13.9830579,15.3734949 C14.716367,14.5318864 15.7960692,14 17,14 C19.209139,14 21,15.790861 21,18 C21,20.209139 19.209139,22 17,22 C14.790861,22 13,20.209139 13,18 C13,17.7125769 13.0303151,17.4322343 13.0879223,17.1619952 L8.01694214,14.6265051 C7.28363296,15.4681136 6.20393084,16 5,16 C2.790861,16 1,14.209139 1,12 C1,9.790861 2.790861,8 5,8 C6.20393084,8 7.28363296,8.53188639 8.01694214,9.37349494 L13.0879223,6.83800484 C13.0303151,6.56776568 13,6.28742308 13,6 C13,3.790861 14.790861,2 17,2 C19.209139,2 21,3.790861 21,6 C21,8.209139 19.209139,10 17,10 C15.7960692,10 14.716367,9.46811361 13.9830579,8.62650506 L8.91207766,11.1619952 Z M5,14 C6.1045695,14 7,13.1045695 7,12 C7,10.8954305 6.1045695,10 5,10 C3.8954305,10 3,10.8954305 3,12 C3,13.1045695 3.8954305,14 5,14 Z M17,8 C18.1045695,8 19,7.1045695 19,6 C19,4.8954305 18.1045695,4 17,4 C15.8954305,4 15,4.8954305 15,6 C15,7.1045695 15.8954305,8 17,8 Z M17,20 C18.1045695,20 19,19.1045695 19,18 C19,16.8954305 18.1045695,16 17,16 C15.8954305,16 15,16.8954305 15,18 C15,19.1045695 15.8954305,20 17,20 Z" id="path-1"></path>
    </defs>
    <g id="24-/-share" stroke="none" stroke-width="1" fill="none" fill-rule="evenodd">
        <g id="share">
            <rect id="placeholder" fill-opacity="0" fill="#FFFFFF" x="0" y="0" width="24" height="24"></rect>
            <mask id="mask-2" fill="white">
                <use xlink:href="#path-1"></use>
            </mask>
            <g id="Combined-Shape" fill-rule="nonzero"></g>
            <g id="color-/-1---primary" mask="url(#mask-2)" fill="#000000">
                <rect id="color" x="0" y="0" width="24" height="24"></rect>
            </g>
        </g>
    </g>
</svg>