<?xml version="1.0" encoding="UTF-8"?>
<svg width="24px" height="24px" viewBox="0 0 24 24" version="1.1" xmlns="http://www.w3.org/2000/svg" xmlns:xlink="http://www.w3.org/1999/xlink">
    <!-- Generator: Sketch 49.3 (51167) - http://www.bohemiancoding.com/sketch -->
    <title>24 / sound-wave</title>
    <desc>Created with Sketch.</desc>
    <defs>
        <path d="M21,14 L19,14 L19,10 L21,10 L21,14 Z M17,16 L15,16 L15,8 L17,8 L17,16 Z M13,19 L11,19 L11,5 L13,5 L13,19 Z M9,16 L7,16 L7,8 L9,8 L9,16 Z M5,14 L3,14 L3,10 L5,10 L5,14 Z" id="path-1"></path>
    </defs>
    <g id="24-/-sound-wave" stroke="none" stroke-width="1" fill="none" fill-rule="evenodd">
        <g id="sound-wave">
            <rect id="placeholder" fill-opacity="0" fill="#FFFFFF" x="0" y="0" width="24" height="24"></rect>
            <mask id="mask-2" fill="white">
                <use xlink:href="#path-1"></use>
            </mask>
            <g id="Combined-Shape" fill-rule="nonzero"></g>
            <g id="color-/-1---primary" mask="url(#mask-2)" fill="#000000">
                <rect id="color" x="0" y="0" width="24" height="24"></rect>
            </g>
        </g>
    </g>
</svg>