<?xml version="1.0" encoding="UTF-8"?>
<svg width="24px" height="24px" viewBox="0 0 24 24" version="1.1" xmlns="http://www.w3.org/2000/svg" xmlns:xlink="http://www.w3.org/1999/xlink">
    <!-- Generator: Sketch 49.3 (51167) - http://www.bohemiancoding.com/sketch -->
    <title>24 / toggle-right</title>
    <desc>Created with Sketch.</desc>
    <defs>
        <path d="M7,5 L17,5 C20.8659932,5 24,8.13400675 24,12 C24,15.8659932 20.8659932,19 17,19 L7,19 C3.13400675,19 0,15.8659932 0,12 C0,8.13400675 3.13400675,5 7,5 Z M7,7 C4.23857625,7 2,9.23857625 2,12 C2,14.7614237 4.23857625,17 7,17 L17,17 C19.7614237,17 22,14.7614237 22,12 C22,9.23857625 19.7614237,7 17,7 L7,7 Z M17,16 C14.790861,16 13,14.209139 13,12 C13,9.790861 14.790861,8 17,8 C19.209139,8 21,9.790861 21,12 C21,14.209139 19.209139,16 17,16 Z M17,14 C18.1045695,14 19,13.1045695 19,12 C19,10.8954305 18.1045695,10 17,10 C15.8954305,10 15,10.8954305 15,12 C15,13.1045695 15.8954305,14 17,14 Z" id="path-1"></path>
    </defs>
    <g id="24-/-toggle-right" stroke="none" stroke-width="1" fill="none" fill-rule="evenodd">
        <g id="toggle-right">
            <rect id="placeholder" fill-opacity="0" fill="#FFFFFF" x="0" y="0" width="24" height="24"></rect>
            <mask id="mask-2" fill="white">
                <use xlink:href="#path-1"></use>
            </mask>
            <g id="Shape" fill-rule="nonzero"></g>
            <g id="color-/-1---primary" mask="url(#mask-2)" fill="#000000">
                <rect id="color" x="0" y="0" width="24" height="24"></rect>
            </g>
        </g>
    </g>
</svg>