<?xml version="1.0" encoding="UTF-8"?>
<svg width="24px" height="24px" viewBox="0 0 24 24" version="1.1" xmlns="http://www.w3.org/2000/svg" xmlns:xlink="http://www.w3.org/1999/xlink">
    <!-- Generator: Sketch 49.3 (51167) - http://www.bohemiancoding.com/sketch -->
    <title>24 / trash</title>
    <desc>Created with Sketch.</desc>
    <defs>
        <path d="M20.0867995,8 L19.9965458,9.08304548 L19,21 C19,22.1045695 18.1045695,23 17,23 L7,23 C5.8954305,23 5,22.1045695 5.00345424,21.0830455 L3.91320045,8 L20.0867995,8 Z M6.08648886,10 L7,21 L17,21 L17.0034542,20.9169545 L17.9132005,10 L6.08648886,10 Z M4,4 L20,4 C21.1045695,4 22,4.8954305 22,6 L22,8 C22,9.1045695 21.1045695,10 20,10 L4,10 C2.8954305,10 2,9.1045695 2,8 L2,6 C2,4.8954305 2.8954305,4 4,4 Z M4,6 L4,8 L20,8 L20,6 L4,6 Z M9,1 L15,1 C16.1045695,1 17,1.8954305 17,3 L17,6 L7,6 L7,3 C7,1.8954305 7.8954305,1 9,1 Z M15,4 L15,3 L9,3 L9,4 L15,4 Z" id="path-1"></path>
    </defs>
    <g id="24-/-trash" stroke="none" stroke-width="1" fill="none" fill-rule="evenodd">
        <g id="trash">
            <rect id="placeholder" fill-opacity="0" fill="#FFFFFF" x="0" y="0" width="24" height="24"></rect>
            <mask id="mask-2" fill="white">
                <use xlink:href="#path-1"></use>
            </mask>
            <g id="Shape" fill-rule="nonzero"></g>
            <g id="color-/-1---primary" mask="url(#mask-2)" fill="#000000">
                <rect id="color" x="0" y="0" width="24" height="24"></rect>
            </g>
        </g>
    </g>
</svg>