<?xml version="1.0" encoding="UTF-8"?>
<svg width="24px" height="24px" viewBox="0 0 24 24" version="1.1" xmlns="http://www.w3.org/2000/svg" xmlns:xlink="http://www.w3.org/1999/xlink">
    <!-- Generator: Sketch 49.3 (51167) - http://www.bohemiancoding.com/sketch -->
    <title>24 / unlock</title>
    <desc>Created with Sketch.</desc>
    <defs>
        <path d="M7,11 L7,6 C7,3.23857625 9.23857625,1 12,1 C14.7614237,1 17,3.23857625 17,6 L17,8 L15,8 L15,6 C15,4.34314575 13.6568542,3 12,3 C10.3431458,3 9,4.34314575 9,6 L9,11 L18,11 C19.1045695,11 20,11.8954305 20,13 L20,21 C20,22.1045695 19.1045695,23 18,23 L6,23 C4.8954305,23 4,22.1045695 4,21 L4,13 C4,11.8954305 4.8954305,11 6,11 L7,11 Z M6,13 L6,21 L18,21 L18,13 L6,13 Z M12,18 C11.4477153,18 11,17.5522847 11,17 C11,16.4477153 11.4477153,16 12,16 C12.5522847,16 13,16.4477153 13,17 C13,17.5522847 12.5522847,18 12,18 Z" id="path-1"></path>
    </defs>
    <g id="24-/-unlock" stroke="none" stroke-width="1" fill="none" fill-rule="evenodd">
        <g id="unlock">
            <rect id="placeholder" fill-opacity="0" fill="#FFFFFF" x="0" y="0" width="24" height="24"></rect>
            <mask id="mask-2" fill="white">
                <use xlink:href="#path-1"></use>
            </mask>
            <g id="Shape" fill-rule="nonzero"></g>
            <g id="color-/-1---primary" mask="url(#mask-2)" fill="#000000">
                <rect id="color" x="0" y="0" width="24" height="24"></rect>
            </g>
        </g>
    </g>
</svg>