<?xml version="1.0" encoding="UTF-8"?>
<svg width="24px" height="24px" viewBox="0 0 24 24" version="1.1" xmlns="http://www.w3.org/2000/svg" xmlns:xlink="http://www.w3.org/1999/xlink">
    <!-- Generator: Sketch 49.3 (51167) - http://www.bohemiancoding.com/sketch -->
    <title>24 / video</title>
    <desc>Created with Sketch.</desc>
    <defs>
        <path d="M17,8.38196601 L23,5.38196601 L23,18.618034 L17,15.618034 L17,17 C17,18.1045695 16.1045695,19 15,19 L3,19 C1.8954305,19 1,18.1045695 1,17 L1,7 C1,5.8954305 1.8954305,5 3,5 L15,5 C16.1045695,5 17,5.8954305 17,7 L17,8.38196601 Z M17,10.618034 L17,13.381966 L21,15.381966 L21,8.61803399 L17,10.618034 Z M3,7 L3,17 L15,17 L15,7 L3,7 Z" id="path-1"></path>
    </defs>
    <g id="24-/-video" stroke="none" stroke-width="1" fill="none" fill-rule="evenodd">
        <g id="video">
            <rect id="placeholder" fill-opacity="0" fill="#FFFFFF" x="0" y="0" width="24" height="24"></rect>
            <mask id="mask-2" fill="white">
                <use xlink:href="#path-1"></use>
            </mask>
            <g id="Shape" fill-rule="nonzero"></g>
            <g id="color-/-1---primary" mask="url(#mask-2)" fill="#000000">
                <rect id="color" x="0" y="0" width="24" height="24"></rect>
            </g>
        </g>
    </g>
</svg>